<?xml version="1.0" encoding="UTF-8" standalone="no"?>
<!DOCTYPE svg PUBLIC "-//W3C//DTD SVG 1.1//EN" "http://www.w3.org/Graphics/SVG/1.1/DTD/svg11.dtd">
<svg width="100%" height="100%" viewBox="0 0 10062 3314" version="1.1" xmlns="http://www.w3.org/2000/svg" xmlns:xlink="http://www.w3.org/1999/xlink" xml:space="preserve" xmlns:serif="http://www.serif.com/" style="fill-rule:evenodd;clip-rule:evenodd;stroke-linejoin:round;stroke-miterlimit:2;">
    <g transform="matrix(4.16667,0,0,4.16667,0,0)">
        <g transform="matrix(1.24538,0,0,1.24538,-356.57,-3579.56)">
            <g transform="matrix(0.802965,0,0,0.802965,-321.102,2345.72)">
                <g transform="matrix(100,0,0,100,1343.28,741.816)">
                </g>
                <text x="782.478px" y="741.816px" style="font-family:'JosefinSans-Regular', 'Josefin Sans';font-size:100px;fill:rgb(13,13,13);">Anw<tspan x="974.378px " y="741.816px ">e</tspan>senheit</text>
                <rect x="782.478" y="749.316" width="560.8" height="5" style="fill:rgb(13,13,13);"/>
            </g>
            <g transform="matrix(0.802965,0,0,0.802965,62.644,2490.74)">
                <g transform="matrix(54.1667,0,0,54.1667,921.849,706.295)">
                </g>
                <text x="782.478px" y="706.295px" style="font-family:'JosefinSans-Regular', 'Josefin Sans';font-size:54.167px;fill:rgb(13,13,13);">08:00</text>
            </g>
            <g transform="matrix(0.802965,0,0,0.802965,637.479,2490.74)">
                <g transform="matrix(54.1667,0,0,54.1667,907.116,706.295)">
                </g>
                <text x="782.478px" y="706.295px" style="font-family:'JosefinSans-Regular', 'Josefin Sans';font-size:54.167px;fill:rgb(13,13,13);">12:00</text>
            </g>
            <g>
                <g transform="matrix(0.802965,0,0,0.802965,-321.102,2563.51)">
                    <g transform="matrix(54.1667,0,0,54.1667,862.212,706.295)">
                    </g>
                    <text x="782.478px" y="706.295px" style="font-family:'JosefinSans-Regular', 'Josefin Sans';font-size:54.167px;fill:rgb(13,13,13);">Mo</text>
                </g>
                <rect x="481.669" y="3109.78" width="1712.38" height="33.121" style="fill:rgb(134,153,167);"/>
                <g transform="matrix(0.211697,0,0,1,479.801,0)">
                    <path d="M2194.05,3119.72L2194.05,3132.97C2194.05,3138.45 2173.01,3142.9 2147.11,3142.9L528.606,3142.9C502.701,3142.9 481.669,3138.45 481.669,3132.97L481.669,3119.72C481.669,3114.23 502.701,3109.78 528.606,3109.78L2147.11,3109.78C2173.01,3109.78 2194.05,3114.23 2194.05,3119.72Z" style="fill:rgb(1,17,38);"/>
                </g>
                <g transform="matrix(0.337884,0,0,1,1452.71,0)">
                    <path d="M2194.05,3119.72L2194.05,3132.97C2194.05,3138.45 2180.87,3142.9 2164.64,3142.9L511.077,3142.9C494.846,3142.9 481.669,3138.45 481.669,3132.97L481.669,3119.72C481.669,3114.23 494.846,3109.78 511.077,3109.78L2164.64,3109.78C2180.87,3109.78 2194.05,3114.23 2194.05,3119.72Z" style="fill:rgb(1,17,38);"/>
                </g>
            </g>
            <g transform="matrix(1,0,0,1,0,58.816)">
                <g transform="matrix(0.802965,0,0,0.802965,-321.102,2563.51)">
                    <g transform="matrix(54.1667,0,0,54.1667,837.133,706.295)">
                    </g>
                    <text x="782.478px" y="706.295px" style="font-family:'JosefinSans-Regular', 'Josefin Sans';font-size:54.167px;fill:rgb(13,13,13);">Di</text>
                </g>
                <rect x="481.669" y="3109.78" width="1712.38" height="33.121" style="fill:rgb(134,153,167);"/>
                <g transform="matrix(0.211697,0,0,1,479.801,0)">
                    <path d="M2194.05,3119.72L2194.05,3132.97C2194.05,3138.45 2173.01,3142.9 2147.11,3142.9L528.606,3142.9C502.701,3142.9 481.669,3138.45 481.669,3132.97L481.669,3119.72C481.669,3114.23 502.701,3109.78 528.606,3109.78L2147.11,3109.78C2173.01,3109.78 2194.05,3114.23 2194.05,3119.72Z" style="fill:rgb(1,17,38);"/>
                </g>
                <g transform="matrix(0.31674,0,0,1,1462.9,0)">
                    <path d="M2194.05,3119.72L2194.05,3132.97C2194.05,3138.45 2179.99,3142.9 2162.67,3142.9L513.04,3142.9C495.726,3142.9 481.669,3138.45 481.669,3132.97L481.669,3119.72C481.669,3114.23 495.726,3109.78 513.04,3109.78L2162.67,3109.78C2179.99,3109.78 2194.05,3114.23 2194.05,3119.72Z" style="fill:rgb(1,17,38);"/>
                </g>
            </g>
            <g transform="matrix(0.802965,0,0,0.802965,1204.37,2490.74)">
                <g transform="matrix(54.1667,0,0,54.1667,923.041,706.295)">
                </g>
                <text x="782.478px" y="706.295px" style="font-family:'JosefinSans-Regular', 'Josefin Sans';font-size:54.167px;fill:rgb(13,13,13);">20:00</text>
            </g>
            <g transform="matrix(1,0,0,1,0,117.632)">
                <g transform="matrix(0.802965,0,0,0.802965,-321.102,2563.51)">
                    <g transform="matrix(54.1667,0,0,54.1667,846.503,706.295)">
                    </g>
                    <text x="782.478px" y="706.295px" style="font-family:'JosefinSans-Regular', 'Josefin Sans';font-size:54.167px;fill:rgb(13,13,13);">Mi</text>
                </g>
                <rect x="481.669" y="3109.78" width="1712.38" height="33.121" style="fill:rgb(134,153,167);"/>
                <g transform="matrix(0.27351,0,0,1,450.028,0)">
                    <path d="M2194.05,3119.72L2194.05,3132.97C2194.05,3138.45 2177.77,3142.9 2157.72,3142.9L517.998,3142.9C497.947,3142.9 481.669,3138.45 481.669,3132.97L481.669,3119.72C481.669,3114.23 497.947,3109.78 517.998,3109.78L2157.72,3109.78C2177.77,3109.78 2194.05,3114.23 2194.05,3119.72Z" style="fill:rgb(1,17,38);"/>
                </g>
                <g transform="matrix(0.31674,0,0,1,1462.9,0)">
                    <path d="M2194.05,3119.72L2194.05,3132.97C2194.05,3138.45 2179.99,3142.9 2162.67,3142.9L513.04,3142.9C495.726,3142.9 481.669,3138.45 481.669,3132.97L481.669,3119.72C481.669,3114.23 495.726,3109.78 513.04,3109.78L2162.67,3109.78C2179.99,3109.78 2194.05,3114.23 2194.05,3119.72Z" style="fill:rgb(1,17,38);"/>
                </g>
            </g>
            <g>
                <g transform="matrix(0.802965,0,0,0.802965,-321.102,2563.51)">
                    <g transform="matrix(54.1667,0,0,54.1667,862.212,706.295)">
                    </g>
                    <text x="782.478px" y="706.295px" style="font-family:'JosefinSans-Regular', 'Josefin Sans';font-size:54.167px;fill:rgb(13,13,13);">Mo</text>
                </g>
                <rect x="481.669" y="3109.78" width="1712.38" height="33.121" style="fill:rgb(134,153,167);"/>
                <g transform="matrix(0.211697,0,0,1,479.801,0)">
                    <path d="M2194.05,3119.72L2194.05,3132.97C2194.05,3138.45 2173.01,3142.9 2147.11,3142.9L528.606,3142.9C502.701,3142.9 481.669,3138.45 481.669,3132.97L481.669,3119.72C481.669,3114.23 502.701,3109.78 528.606,3109.78L2147.11,3109.78C2173.01,3109.78 2194.05,3114.23 2194.05,3119.72Z" style="fill:rgb(1,17,38);"/>
                </g>
                <g transform="matrix(0.337884,0,0,1,1452.71,0)">
                    <path d="M2194.05,3119.72L2194.05,3132.97C2194.05,3138.45 2180.87,3142.9 2164.64,3142.9L511.077,3142.9C494.846,3142.9 481.669,3138.45 481.669,3132.97L481.669,3119.72C481.669,3114.23 494.846,3109.78 511.077,3109.78L2164.64,3109.78C2180.87,3109.78 2194.05,3114.23 2194.05,3119.72Z" style="fill:rgb(1,17,38);"/>
                </g>
            </g>
            <g transform="matrix(1,0,0,1,0,176.448)">
                <g transform="matrix(0.802965,0,0,0.802965,-321.102,2563.51)">
                    <g transform="matrix(54.1667,0,0,54.1667,852.841,706.295)">
                    </g>
                    <text x="782.478px" y="706.295px" style="font-family:'JosefinSans-Regular', 'Josefin Sans';font-size:54.167px;fill:rgb(13,13,13);">Do</text>
                </g>
                <rect x="481.669" y="3109.78" width="1712.38" height="33.121" style="fill:rgb(134,153,167);"/>
                <g transform="matrix(0.211697,0,0,1,479.801,0)">
                    <path d="M2194.05,3119.72L2194.05,3132.97C2194.05,3138.45 2173.01,3142.9 2147.11,3142.9L528.606,3142.9C502.701,3142.9 481.669,3138.45 481.669,3132.97L481.669,3119.72C481.669,3114.23 502.701,3109.78 528.606,3109.78L2147.11,3109.78C2173.01,3109.78 2194.05,3114.23 2194.05,3119.72Z" style="fill:rgb(1,17,38);"/>
                </g>
                <g transform="matrix(0.31674,0,0,1,1462.9,0)">
                    <path d="M2194.05,3119.72L2194.05,3132.97C2194.05,3138.45 2179.99,3142.9 2162.67,3142.9L513.04,3142.9C495.726,3142.9 481.669,3138.45 481.669,3132.97L481.669,3119.72C481.669,3114.23 495.726,3109.78 513.04,3109.78L2162.67,3109.78C2179.99,3109.78 2194.05,3114.23 2194.05,3119.72Z" style="fill:rgb(1,17,38);"/>
                </g>
            </g>
            <g>
                <g transform="matrix(0.802965,0,0,0.802965,-321.102,2563.51)">
                    <g transform="matrix(54.1667,0,0,54.1667,862.212,706.295)">
                    </g>
                    <text x="782.478px" y="706.295px" style="font-family:'JosefinSans-Regular', 'Josefin Sans';font-size:54.167px;fill:rgb(13,13,13);">Mo</text>
                </g>
                <path d="M2194.05,3119.72L2194.05,3132.97C2194.05,3138.45 2189.59,3142.9 2184.11,3142.9L491.605,3142.9C486.121,3142.9 481.669,3138.45 481.669,3132.97L481.669,3119.72C481.669,3114.23 486.121,3109.78 491.605,3109.78L2184.11,3109.78C2189.59,3109.78 2194.05,3114.23 2194.05,3119.72Z" style="fill:rgb(134,153,167);"/>
                <g transform="matrix(0.211697,0,0,1,479.801,0)">
                    <path d="M2194.05,3119.72L2194.05,3132.97C2194.05,3138.45 2173.01,3142.9 2147.11,3142.9L528.606,3142.9C502.701,3142.9 481.669,3138.45 481.669,3132.97L481.669,3119.72C481.669,3114.23 502.701,3109.78 528.606,3109.78L2147.11,3109.78C2173.01,3109.78 2194.05,3114.23 2194.05,3119.72Z" style="fill:rgb(1,17,38);"/>
                </g>
                <g transform="matrix(0.31674,0,0,1,1462.9,0)">
                    <path d="M2194.05,3119.72L2194.05,3132.97C2194.05,3138.45 2179.99,3142.9 2162.67,3142.9L513.04,3142.9C495.726,3142.9 481.669,3138.45 481.669,3132.97L481.669,3119.72C481.669,3114.23 495.726,3109.78 513.04,3109.78L2162.67,3109.78C2179.99,3109.78 2194.05,3114.23 2194.05,3119.72Z" style="fill:rgb(1,17,38);"/>
                </g>
            </g>
            <g transform="matrix(1,0,0,1,-6.82121e-13,352.896)">
                <g transform="matrix(0.802965,0,0,0.802965,-321.102,2563.51)">
                    <g transform="matrix(54.1667,0,0,54.1667,843.524,706.295)">
                    </g>
                    <text x="782.478px" y="706.295px" style="font-family:'JosefinSans-Regular', 'Josefin Sans';font-size:54.167px;fill:rgb(13,13,13);">So</text>
                </g>
                <rect x="481.669" y="3109.78" width="1712.38" height="33.121" style="fill:rgb(134,153,167);"/>
                <g transform="matrix(0.470884,0,0,1,605.936,0)">
                    <path d="M2194.05,3119.72L2194.05,3132.97C2194.05,3138.45 2184.59,3142.9 2172.94,3142.9L502.771,3142.9C491.124,3142.9 481.669,3138.45 481.669,3132.97L481.669,3119.72C481.669,3114.23 491.124,3109.78 502.771,3109.78L2172.94,3109.78C2184.59,3109.78 2194.05,3114.23 2194.05,3119.72Z" style="fill:rgb(1,17,38);"/>
                </g>
                <g transform="matrix(0.31674,0,0,1,1462.9,0)">
                    <path d="M2194.05,3119.72L2194.05,3132.97C2194.05,3138.45 2179.99,3142.9 2162.67,3142.9L513.04,3142.9C495.726,3142.9 481.669,3138.45 481.669,3132.97L481.669,3119.72C481.669,3114.23 495.726,3109.78 513.04,3109.78L2162.67,3109.78C2179.99,3109.78 2194.05,3114.23 2194.05,3119.72Z" style="fill:rgb(1,17,38);"/>
                </g>
            </g>
            <g transform="matrix(1,0,0,1,2.27374e-13,235.264)">
                <g transform="matrix(0.802965,0,0,0.802965,-321.102,2563.51)">
                    <g transform="matrix(54.1667,0,0,54.1667,833.612,706.295)">
                    </g>
                    <text x="782.478px" y="706.295px" style="font-family:'JosefinSans-Regular', 'Josefin Sans';font-size:54.167px;fill:rgb(13,13,13);">F<tspan x="813.245px " y="706.295px ">r</tspan></text>
                </g>
                <rect x="481.669" y="3109.78" width="1712.38" height="33.121" style="fill:rgb(134,153,167);"/>
                <g transform="matrix(0.211697,0,0,1,479.801,0)">
                    <path d="M2194.05,3119.72L2194.05,3132.97C2194.05,3138.45 2173.01,3142.9 2147.11,3142.9L528.606,3142.9C502.701,3142.9 481.669,3138.45 481.669,3132.97L481.669,3119.72C481.669,3114.23 502.701,3109.78 528.606,3109.78L2147.11,3109.78C2173.01,3109.78 2194.05,3114.23 2194.05,3119.72Z" style="fill:rgb(1,17,38);"/>
                </g>
                <g transform="matrix(0.392775,0,0,1,1332.28,0)">
                    <path d="M2194.05,3119.72L2194.05,3132.97C2194.05,3138.45 2182.71,3142.9 2168.75,3142.9L506.967,3142.9C493.005,3142.9 481.669,3138.45 481.669,3132.97L481.669,3119.72C481.669,3114.23 493.005,3109.78 506.967,3109.78L2168.75,3109.78C2182.71,3109.78 2194.05,3114.23 2194.05,3119.72Z" style="fill:rgb(1,17,38);"/>
                </g>
            </g>
            <g transform="matrix(1,0,0,1,-4.54747e-13,294.08)">
                <g transform="matrix(0.802965,0,0,0.802965,-321.102,2563.51)">
                    <g transform="matrix(54.1667,0,0,54.1667,845.799,706.295)">
                    </g>
                    <text x="782.478px" y="706.295px" style="font-family:'JosefinSans-Regular', 'Josefin Sans';font-size:54.167px;fill:rgb(13,13,13);">Sa</text>
                </g>
                <rect x="481.669" y="3109.78" width="1712.38" height="33.121" style="fill:rgb(134,153,167);"/>
                <g transform="matrix(0.634071,0,0,1,276.357,0)">
                    <path d="M2194.05,3119.72L2194.05,3132.97C2194.05,3138.45 2187.02,3142.9 2178.37,3142.9L497.34,3142.9C488.691,3142.9 481.669,3138.45 481.669,3132.97L481.669,3119.72C481.669,3114.23 488.691,3109.78 497.34,3109.78L2178.37,3109.78C2187.02,3109.78 2194.05,3114.23 2194.05,3119.72Z" style="fill:rgb(1,17,38);"/>
                </g>
                <g transform="matrix(0.337884,0,0,1,1452.71,0)">
                    <path d="M2194.05,3119.72L2194.05,3132.97C2194.05,3138.45 2180.87,3142.9 2164.64,3142.9L511.077,3142.9C494.846,3142.9 481.669,3138.45 481.669,3132.97L481.669,3119.72C481.669,3114.23 494.846,3109.78 511.077,3109.78L2164.64,3109.78C2180.87,3109.78 2194.05,3114.23 2194.05,3119.72Z" style="fill:rgb(1,17,38);"/>
                </g>
            </g>
        </g>
    </g>
</svg>
