<?xml version="1.0" encoding="UTF-8" standalone="no"?>
<!DOCTYPE svg PUBLIC "-//W3C//DTD SVG 1.1//EN" "http://www.w3.org/Graphics/SVG/1.1/DTD/svg11.dtd">
<svg width="100%" height="100%" viewBox="0 0 2779 500" version="1.1" xmlns="http://www.w3.org/2000/svg" xmlns:xlink="http://www.w3.org/1999/xlink" xml:space="preserve" xmlns:serif="http://www.serif.com/" style="fill-rule:evenodd;clip-rule:evenodd;stroke-linejoin:round;stroke-miterlimit:2;">
    <g transform="matrix(5.55556,0,0,5.55556,-388.745,-1527.78)">
        <g id="g6" transform="matrix(1.22036,0,0,1.22036,-51.5189,-45.4123)">
            <g id="g5">
                <path id="text1-2-1" d="M165.647,331.202L158.879,331.202L157.005,335.828L154.668,335.828L162.36,317.497L162.506,317.497L170.199,335.828L167.473,335.828L165.647,331.202ZM164.843,329.158L162.336,322.731L159.731,329.158L164.843,329.158Z" style="fill:rgb(166,152,133);fill-rule:nonzero;"/>
                <path id="text1-2-1-3" d="M189.309,329.335C189.309,330.114 189.496,330.82 189.869,331.453C190.242,332.07 190.745,332.565 191.378,332.938C192.027,333.295 192.741,333.474 193.52,333.474C194.332,333.474 195.062,333.295 195.711,332.938C196.377,332.581 196.896,332.086 197.269,331.453C197.643,330.82 197.829,330.114 197.829,329.335L197.829,317.966L200.142,317.966L200.142,329.408C200.142,330.658 199.85,331.769 199.266,332.743C198.681,333.701 197.886,334.447 196.88,334.983C195.874,335.502 194.754,335.762 193.52,335.762C192.303,335.762 191.192,335.502 190.185,334.983C189.179,334.447 188.384,333.701 187.8,332.743C187.232,331.769 186.948,330.658 186.948,329.408L186.948,317.966L189.309,317.966L189.309,329.335Z" style="fill:rgb(166,152,133);fill-rule:nonzero;"/>
                <path id="text1-2-1-3-0" d="M229.68,318.216L229.68,320.48L224.957,320.48L224.957,335.817L222.596,335.817L222.596,320.48L217.995,320.48L217.995,318.216L229.68,318.216Z" style="fill:rgb(166,152,133);fill-rule:nonzero;"/>
                <path id="text1-2-1-3-0-0" d="M245.852,326.834C245.852,325.227 246.258,323.734 247.069,322.354C247.881,320.975 248.968,319.879 250.332,319.068C251.711,318.24 253.212,317.826 254.835,317.826C256.442,317.826 257.935,318.24 259.315,319.068C260.694,319.879 261.79,320.975 262.601,322.354C263.429,323.734 263.843,325.227 263.843,326.834C263.843,328.457 263.437,329.958 262.625,331.337C261.814,332.717 260.71,333.812 259.315,334.624C257.935,335.419 256.442,335.817 254.835,335.817C253.212,335.817 251.711,335.419 250.332,334.624C248.952,333.829 247.857,332.749 247.045,331.386C246.25,330.007 245.852,328.489 245.852,326.834ZM248.287,326.858C248.287,328.059 248.579,329.171 249.163,330.193C249.747,331.216 250.543,332.027 251.549,332.628C252.571,333.228 253.683,333.528 254.884,333.528C256.085,333.528 257.18,333.236 258.17,332.652C259.177,332.051 259.964,331.24 260.532,330.217C261.116,329.179 261.408,328.051 261.408,326.834C261.408,325.616 261.116,324.489 260.532,323.45C259.948,322.411 259.152,321.592 258.146,320.991C257.14,320.391 256.036,320.09 254.835,320.09C253.634,320.09 252.531,320.399 251.524,321.015C250.518,321.616 249.723,322.435 249.139,323.474C248.571,324.513 248.287,325.641 248.287,326.858Z" style="fill:rgb(166,152,133);fill-rule:nonzero;"/>
                <path id="text1-2-1-3-0-0-2" d="M299.378,317.619L299.378,335.78L297.041,335.78L297.041,324.387L290.566,333.565L290.517,333.565L284.163,324.703L284.163,335.78L281.875,335.78L281.875,317.619L281.899,317.619L290.566,329.889L299.354,317.619L299.378,317.619Z" style="fill:rgb(166,152,133);fill-rule:nonzero;"/>
                <path id="text1-2-1-3-0-0-2-3" d="M328.014,331.175L321.246,331.175L319.371,335.8L317.034,335.8L324.727,317.469L324.873,317.469L332.566,335.8L329.839,335.8L328.014,331.175ZM327.21,329.13L324.703,322.731L322.098,329.13L327.21,329.13Z" style="fill:rgb(166,152,133);fill-rule:nonzero;"/>
                <path id="text1-2-1-3-0-0-2-3-9" d="M359.027,318.115L359.027,320.379L354.304,320.379L354.304,335.716L351.943,335.716L351.943,320.379L347.342,320.379L347.342,318.115L359.027,318.115Z" style="fill:rgb(166,152,133);fill-rule:nonzero;"/>
                <rect id="text1-2-1-3-0-0-2-3-9-2" x="377.209" y="318.18" width="2.361" height="17.601" style="fill:rgb(166,152,133);fill-rule:nonzero;"/>
                <path id="text1-2-1-3-0-0-2-3-9-2-3-1" d="M397.704,326.882C397.704,325.275 398.109,323.782 398.921,322.402C399.732,321.023 400.82,319.927 402.183,319.116C403.563,318.288 405.064,317.874 406.687,317.874C408.293,317.874 409.786,318.288 411.166,319.116C412.545,319.927 413.641,321.023 414.452,322.402C415.28,323.782 415.694,325.275 415.694,326.882C415.694,328.504 415.288,330.006 414.477,331.385C413.665,332.765 412.562,333.86 411.166,334.672C409.786,335.467 408.293,335.864 406.687,335.864C405.064,335.864 403.563,335.467 402.183,334.672C400.804,333.876 399.708,332.797 398.897,331.434C398.101,330.054 397.704,328.537 397.704,326.882ZM400.138,326.906C400.138,328.107 400.43,329.219 401.014,330.241C401.599,331.263 402.394,332.075 403.4,332.675C404.423,333.276 405.534,333.576 406.735,333.576C407.936,333.576 409.032,333.284 410.022,332.7C411.028,332.099 411.815,331.288 412.383,330.265C412.967,329.227 413.26,328.099 413.26,326.881C413.26,325.664 412.967,324.536 412.383,323.498C411.799,322.459 411.004,321.639 409.997,321.039C408.991,320.438 407.888,320.138 406.687,320.138C405.486,320.138 404.382,320.447 403.376,321.063C402.37,321.664 401.574,322.483 400.99,323.522C400.422,324.561 400.138,325.689 400.138,326.906Z" style="fill:rgb(166,152,133);fill-rule:nonzero;"/>
                <path id="text1-2-1-3-0-0-2-3-9-2-3-1-6" d="M449.198,318.118L449.198,336.303L449.125,336.303L436.198,323.182L436.247,335.719L433.861,335.719L433.861,317.583L433.983,317.583L446.886,330.85L446.837,318.118L449.198,318.118Z" style="fill:rgb(166,152,133);fill-rule:nonzero;"/>
            </g>
            <g id="g4">
                <path id="text1" d="M99.555,263.65L108.99,263.65C113.279,263.65 116.822,264.508 119.618,266.224C122.445,267.908 124.494,270.1 125.765,272.8C127.068,275.469 127.719,278.297 127.719,281.283C127.719,284.619 126.941,287.573 125.384,290.147C123.827,292.688 121.746,294.658 119.141,296.056C116.536,297.422 113.708,298.105 110.658,298.105L99.555,298.105L99.555,263.65ZM109.753,293.626C112.295,293.626 114.566,293.133 116.568,292.148C118.569,291.132 120.126,289.67 121.238,287.764C122.382,285.858 122.953,283.586 122.953,280.949C122.953,278.249 122.366,275.93 121.19,273.992C120.015,272.054 118.442,270.592 116.472,269.607C114.534,268.591 112.438,268.082 110.182,268.082L104.177,268.082L104.177,293.626L109.753,293.626Z" style="fill:rgb(166,152,133);fill-rule:nonzero;"/>
                <path id="text1-2" d="M163.63,281.158C163.63,278.013 164.424,275.09 166.012,272.39C167.601,269.689 169.729,267.545 172.398,265.956C175.099,264.336 178.037,263.526 181.214,263.526C184.36,263.526 187.282,264.336 189.983,265.956C192.683,267.545 194.828,269.689 196.416,272.39C198.037,275.09 198.847,278.013 198.847,281.158C198.847,284.335 198.053,287.274 196.464,289.975C194.876,292.675 192.715,294.82 189.983,296.408C187.282,297.965 184.36,298.743 181.214,298.743C178.037,298.743 175.099,297.965 172.398,296.408C169.698,294.851 167.553,292.739 165.965,290.07C164.408,287.369 163.63,284.399 163.63,281.158ZM168.395,281.206C168.395,283.557 168.967,285.733 170.111,287.735C171.254,289.736 172.811,291.325 174.781,292.5C176.782,293.676 178.959,294.264 181.31,294.264C183.661,294.264 185.805,293.692 187.743,292.548C189.713,291.372 191.254,289.784 192.366,287.782C193.509,285.749 194.081,283.541 194.081,281.158C194.081,278.776 193.509,276.568 192.366,274.534C191.222,272.501 189.665,270.897 187.695,269.721C185.726,268.546 183.565,267.958 181.214,267.958C178.863,267.958 176.703,268.561 174.733,269.769C172.763,270.944 171.207,272.549 170.063,274.582C168.951,276.615 168.395,278.823 168.395,281.206Z" style="fill:rgb(166,152,133);fill-rule:nonzero;"/>
                <path id="text1-2-9" d="M308.708,280.992C308.708,277.846 309.503,274.923 311.091,272.223C312.68,269.522 314.808,267.378 317.477,265.789C320.177,264.169 323.116,263.359 326.293,263.359C329.438,263.359 332.361,264.169 335.062,265.789C337.762,267.378 339.907,269.522 341.495,272.223C343.115,274.923 343.926,277.846 343.926,280.992C343.926,284.169 343.131,287.107 341.543,289.808C339.954,292.508 337.794,294.653 335.062,296.241C332.361,297.798 329.438,298.576 326.293,298.576C323.116,298.576 320.177,297.798 317.477,296.241C314.776,294.684 312.632,292.572 311.043,289.903C309.487,287.203 308.708,284.232 308.708,280.992ZM313.474,281.039C313.474,283.39 314.046,285.566 315.189,287.568C316.333,289.569 317.89,291.158 319.86,292.333C321.861,293.509 324.037,294.097 326.388,294.097C328.739,294.097 330.884,293.525 332.822,292.381C334.792,291.206 336.332,289.617 337.444,287.616C338.588,285.582 339.16,283.374 339.16,280.991C339.16,278.609 338.588,276.401 337.444,274.367C336.301,272.334 334.744,270.73 332.774,269.554C330.804,268.379 328.644,267.791 326.293,267.791C323.942,267.791 321.782,268.395 319.812,269.602C317.842,270.777 316.285,272.382 315.142,274.415C314.03,276.448 313.474,278.656 313.474,281.039Z" style="fill:rgb(166,152,133);fill-rule:nonzero;"/>
                <path id="text1-2-9-5" d="M400.942,264.34L400.942,268.772L391.697,268.772L391.697,298.795L387.074,298.795L387.074,268.772L378.067,268.772L378.067,264.34L400.942,264.34Z" style="fill:rgb(166,152,133);fill-rule:nonzero;"/>
                <rect id="text1-2-9-5-1" x="438.897" y="264.138" width="4.623" height="34.455" style="fill:rgb(166,152,133);fill-rule:nonzero;"/>
                <path id="text1-2-9-5-1-8" d="M503.402,298.548L494.443,284.776L486.246,298.548L480.527,298.548L491.869,280.773L481.004,264.094L486.865,264.094L495.443,277.246L503.259,264.094L508.834,264.094L497.921,281.107L509.311,298.548L503.402,298.548Z" style="fill:rgb(166,152,133);fill-rule:nonzero;"/>
                <path id="text1-5" d="M270.963,262.555L270.963,298.106L266.388,298.106L266.388,275.803L253.711,293.769L253.616,293.769L241.178,276.422L241.178,298.106L236.698,298.106L236.698,262.555L236.746,262.555L253.711,286.573L270.915,262.555L270.963,262.555Z" style="fill:rgb(166,152,133);fill-rule:nonzero;"/>
            </g>
        </g>
    </g>
</svg>
