<?xml version="1.0" encoding="UTF-8" standalone="no"?><!DOCTYPE svg PUBLIC "-//W3C//DTD SVG 1.1//EN" "http://www.w3.org/Graphics/SVG/1.1/DTD/svg11.dtd"><svg width="100%" height="100%" viewBox="0 0 1213 817" version="1.1" xmlns="http://www.w3.org/2000/svg" xmlns:xlink="http://www.w3.org/1999/xlink" xml:space="preserve" xmlns:serif="http://www.serif.com/" style="fill-rule:evenodd;clip-rule:evenodd;stroke-linejoin:round;stroke-miterlimit:2;"><g><path d="M341.421,771.071c-0,20.754 -21.071,31.95 -40.892,31.95c-19.821,-0 -40.9,-11.125 -40.9,-31.746l0,-71.963l-8.142,0l0,71.759c0,26.042 25.263,40.096 49.042,40.096c23.775,-0 49.042,-13.979 49.042,-39.892l-0,-71.963l-8.15,0l-0,71.759Z" style="fill:#f2f2f2;fill-rule:nonzero;"/><path d="M198.708,803.029c-19.825,0 -40.896,-11.125 -40.896,-31.737l0,-72.021l-8.154,-0l0,71.817c0,26.041 25.271,40.087 49.05,40.087l0.013,0l2.833,-0.033l0,-8.121l-0.737,0.008l-2.109,0Z" style="fill:#f2f2f2;fill-rule:nonzero;"/><path d="M63.813,699.333l-61.234,-0.021l0,3.871c0,0 -0.033,7.838 -0.033,17.4c-0,11.68 9.504,21.175 21.192,21.175l39.133,0.05c11.071,0 20.471,4.884 25.95,13.442c-5.492,8.563 -14.9,13.462 -25.963,13.462l-39.12,0.026c-11.688,-0 -21.192,9.487 -21.192,21.175c-0,9.537 0.033,17.395 0.033,17.395l0,3.85l60.379,0l0.892,-0.016c21.804,-0.454 37.629,-16.667 37.629,-38.55c0,-6.209 -1.262,-12.034 -3.746,-17.342c2.484,-5.321 3.746,-11.154 3.746,-17.358c0,-21.875 -15.825,-38.084 -37.666,-38.559Zm-0.942,104.08l-52.554,0.008c-0,-3.2 -0.009,-8.083 -0.009,-13.508c0,-7.409 6.021,-13.421 13.43,-13.421l39.35,-0.009l1.354,-0.075c11.237,-0.387 21.262,-5.066 28.029,-12.996c0.833,2.93 1.254,6.009 1.254,9.18c0,17.858 -12.979,30.821 -30.854,30.821Zm29.6,-56.334c-6.863,-8.037 -17.1,-12.825 -28.588,-13.1l-40.145,0.017c-7.409,-0 -13.43,-6.017 -13.43,-13.413c0,-5.446 0.009,-10.329 0.009,-13.516l52.554,0.008c17.875,-0 30.854,12.962 30.854,30.817c0,3.175 -0.421,6.25 -1.254,9.187Z" style="fill:#f2f2f2;fill-rule:nonzero;"/><path d="M901.821,773.717c-0,24.12 -23.975,37.141 -46.538,37.141c-22.566,0 -46.554,-12.946 -46.554,-36.937l0,-74.684l-1.358,0l-0,74.48c-0,25 24.687,38.491 47.912,38.491c23.225,0 47.9,-13.416 47.9,-38.287l0,-74.684l-1.362,0l-0,74.48Z" style="fill:#f2f2f2;fill-rule:nonzero;"/><path d="M855.283,814.292c-24.233,-0 -49.995,-14.221 -49.995,-40.575l-0,-76.563l5.525,0l-0,76.767c-0,22.637 22.912,34.854 44.47,34.854c21.55,-0 44.455,-12.287 44.455,-35.058l-0,-76.563l5.529,0l-0,76.767c-0,26.225 -25.75,40.371 -49.984,40.371Z" style="fill:#f2f2f2;fill-rule:nonzero;"/><path d="M707.546,698.104c-31.513,0 -57.154,25.604 -57.154,57.083c-0,31.467 25.641,57.071 57.154,57.071c31.508,0 57.141,-25.604 57.141,-57.071c0,-31.479 -25.633,-57.083 -57.141,-57.083Zm-0,112.763c-30.746,-0 -55.754,-24.975 -55.754,-55.68c-0,-30.704 25.008,-55.699 55.754,-55.699c30.741,-0 55.754,24.995 55.754,55.699c-0,30.705 -25.013,55.68 -55.754,55.68Z" style="fill:#f2f2f2;fill-rule:nonzero;"/><path d="M707.546,814.342c-32.663,-0 -59.238,-26.538 -59.238,-59.155c0,-32.62 26.575,-59.166 59.238,-59.166c32.658,-0 59.225,26.546 59.225,59.166c-0,32.617 -26.567,59.155 -59.225,59.155Zm-0,-112.771c-29.592,-0 -53.671,24.054 -53.671,53.616c-0,29.551 24.079,53.596 53.671,53.596c29.596,0 53.671,-24.045 53.671,-53.596c-0,-29.562 -24.075,-53.616 -53.671,-53.616Z" style="fill:#f2f2f2;fill-rule:nonzero;"/><path d="M1153.48,699.229l-48.812,0l-0,111.929l48.812,0c30.354,0 55.042,-25.358 55.042,-56.02c-0,-30.655 -24.688,-55.909 -55.042,-55.909Zm0,110.963l-47.862,-0l-0,-109.988l47.862,-0.016c29.821,-0 54.079,24.82 54.079,54.95c0,30.125 -24.258,55.054 -54.079,55.054Z" style="fill:#f2f2f2;fill-rule:nonzero;"/><path d="M1153.48,813.242l-50.896,-0l0,-116.096l50.896,-0c31.5,-0 57.125,26.012 57.125,57.992c0,32.037 -25.625,58.104 -57.125,58.104Zm-45.779,-5.134l45.779,0c28.671,0 51.996,-23.762 51.996,-52.97c-0,-29.151 -23.325,-52.867 -51.996,-52.867l-45.779,0.017l-0,105.82Z" style="fill:#f2f2f2;fill-rule:nonzero;"/><path d="M585.092,754.233l-32.871,0.034c-14.717,-0 -26.696,-12.071 -26.696,-26.905c0,-14.837 11.979,-26.904 26.696,-26.904l58.204,0l0,-1.221l-58.204,0c-15.383,0 -27.896,12.613 -27.896,28.125c0,15.505 12.513,28.109 27.896,28.109l32.871,-0c14.887,-0 26.996,12.192 26.996,27.187c-0,15.009 -12.109,27.217 -26.996,27.217l-58.392,-0l-0,1.221l58.392,-0c15.554,-0 28.212,-12.754 28.212,-28.438c0,-15.671 -12.658,-28.425 -28.212,-28.425Z" style="fill:#f2f2f2;fill-rule:nonzero;"/><path d="M585.092,813.179l-60.475,0l-0,-5.387l60.475,-0c13.737,-0 24.912,-11.275 24.912,-25.134c0,-13.841 -11.175,-25.104 -24.912,-25.104l-32.871,0c-16.529,0 -29.979,-13.546 -29.979,-30.192c-0,-16.658 13.45,-30.208 29.979,-30.208l60.287,0l0,5.388l-60.287,-0c-13.571,-0 -24.613,11.133 -24.613,24.82c0,13.688 11.042,24.821 24.613,24.821l32.871,-0.033c16.704,-0 30.295,13.687 30.295,30.508c0,16.83 -13.591,30.521 -30.295,30.521Z" style="fill:#f2f2f2;fill-rule:nonzero;"/><path d="M449.15,803.004c-19.667,-0.204 -40.362,-11.312 -40.362,-31.746l-0,-12.8l70.541,0l0,-8.145l-70.541,-0l-0,-42.93l70.541,0l0,-8.121l-78.683,0l-0,71.792c-0,25.854 24.887,39.879 48.504,40.088l-0,0.008l30.196,-0l-0,-8.162l-30.196,-0l-0,0.016Z" style="fill:#f2f2f2;fill-rule:nonzero;"/><path d="M1052.03,809.783l-0.504,0l-91.817,-110.479l-2.329,-0.016l0,111.824l1.358,0l0,-110.441l0.313,-0l91.846,110.479l1.242,-0.008l1.008,-0l-0,-0.009l0.058,0l0,-111.845l-1.166,-0l-0.009,110.495Z" style="fill:#f2f2f2;fill-rule:nonzero;"/><path d="M1049.92,813.242l-89.104,-107.184l-0,107.138l-5.525,-0l-0,-116.008l5.396,0.041l89.254,107.396l0.008,-107.421l5.334,0l-0,116.013l-5.363,0.025Z" style="fill:#f2f2f2;fill-rule:nonzero;"/><path d="M813.075,278.017c12.296,-26.3 18.538,-55.159 18.538,-85.83c-0,-108.149 -78.25,-188.316 -186.238,-190.633l-302.821,-0.15l0,19.142c0,-0 -0.141,38.771 -0.141,86.054c-0,57.721 47.016,104.692 104.779,104.692l193.52,0.246c54.746,-0 101.213,24.145 128.305,66.487c-27.167,42.333 -73.671,66.558 -128.354,66.558l-193.455,0.096c-57.779,0 -104.795,46.959 -104.795,104.704c-0,47.184 0.141,86.05 0.141,86.05l0,19.054l298.588,0l4.395,-0.108c107.826,-2.221 186.076,-82.412 186.076,-190.608c-0,-30.709 -6.242,-59.525 -18.538,-85.754Zm-172.363,238.125l-259.85,0.046c-0.016,-15.796 -0.062,-39.967 -0.062,-66.805c-0,-36.604 29.783,-66.35 66.408,-66.35l194.567,-0.008l6.696,-0.375c55.55,-1.925 105.125,-25.071 138.591,-64.275c4.138,14.5 6.209,29.708 6.209,45.396c-0,88.317 -64.159,152.371 -152.559,152.371Zm146.35,-278.513c-33.929,-39.779 -84.533,-63.421 -141.354,-64.796l-198.5,0.092c-36.625,0 -66.408,-29.746 -66.408,-66.325c-0,-26.929 0.046,-51.058 0.062,-66.854l259.85,0.046c88.4,-0 152.559,64.104 152.559,152.395c-0,15.696 -2.071,30.93 -6.209,45.442Z" style="fill:#f2f2f2;fill-rule:nonzero;"/></g></svg>