<?xml version="1.0" encoding="UTF-8" standalone="no"?><!DOCTYPE svg PUBLIC "-//W3C//DTD SVG 1.1//EN" "http://www.w3.org/Graphics/SVG/1.1/DTD/svg11.dtd"><svg width="100%" height="100%" viewBox="0 0 625 167" version="1.1" xmlns="http://www.w3.org/2000/svg" xmlns:xlink="http://www.w3.org/1999/xlink" xml:space="preserve" xmlns:serif="http://www.serif.com/" style="fill-rule:evenodd;clip-rule:evenodd;stroke-linejoin:round;stroke-miterlimit:2;"><path d="M82.646,0c-59.666,0 -82.646,30.892 -82.646,81.598c0,46.575 26.552,81.772 88.936,81.772c33.01,0 57.828,-9.743 65.698,-14.327l-0,-74.26l-74.784,0l0,19.046l39.489,-0l-0,44.38c-3.327,2.754 -13.447,6.116 -30.403,6.116c-42.403,-0 -49.972,-33.813 -49.972,-62.727c0,-33.038 7.639,-62.553 43.682,-62.553c22.715,0 30.228,13.86 30.228,25.336l39.488,-0c0,-25.93 -20.96,-44.381 -69.716,-44.381Zm122.135,3.495l-0,158.303l35.469,-0l0,-158.303l-35.469,-0Zm88.936,-0l-0,158.303l35.469,-0l0,-67.969l13.979,-0c32.408,-0 36.588,8.484 43.856,33.722l9.785,34.247l35.994,-0l-12.755,-44.556c-4.844,-16.753 -8.143,-30.305 -37.217,-35.12l-0,-0.35c21.505,-3.9 41.41,-11.685 41.41,-36.692c0,-30.976 -27.726,-41.585 -67.095,-41.585l-63.426,-0Zm225.223,-0l-66.571,158.303l34.422,-0l16.948,-42.983l69.891,-0l16.949,42.983l34.421,-0l-66.222,-158.303l-39.838,-0Zm-189.754,19.045l27.957,-0c19.989,-0 31.101,8.988 31.101,25.51c0,23.399 -22.966,26.733 -45.079,26.733l-13.979,0l0,-52.243Zm209.149,6.465l0.699,-0l26.733,69.367l-54.165,-0l26.733,-69.367Z" style="fill:#f2f2f2;fill-rule:nonzero;"/></svg>