<?xml version="1.0" encoding="UTF-8" standalone="no"?>
<!DOCTYPE svg PUBLIC "-//W3C//DTD SVG 1.1//EN" "http://www.w3.org/Graphics/SVG/1.1/DTD/svg11.dtd">
<svg width="100%" height="100%" viewBox="0 0 1500 1500" version="1.1" xmlns="http://www.w3.org/2000/svg" xmlns:xlink="http://www.w3.org/1999/xlink" xml:space="preserve" xmlns:serif="http://www.serif.com/" style="fill-rule:evenodd;clip-rule:evenodd;stroke-linejoin:round;stroke-miterlimit:2;">
    <g transform="matrix(5.72427,0,0,5.72427,2.27374e-13,547.516)">
        <g>
            <path d="M239.545,48.52L239.545,33.153L254.021,33.153L254.021,23.799L239.545,23.799L239.545,16.541L236.274,11.504L262.042,11.504L262.042,2.15L229.624,2.15L229.624,52.73L232.964,57.873L262.042,57.873L262.042,48.52L239.545,48.52ZM208.742,57.838L219.799,57.838L219.799,2.189L210.728,2.189L210.728,42.266L190.307,2.189L178.26,2.189L178.26,57.838L187.331,57.838L187.331,15.819L208.742,57.838ZM166.456,50.334C168.872,46.136 169.133,41.708 169.133,40L169.133,19.902C169.032,10.505 164.365,5.862 160.468,3.624C156.267,1.211 151.84,0.95 150.133,0.95L146.983,0.95C137.585,1.051 132.943,5.718 130.703,9.615C128.291,13.816 128.03,18.241 128.03,19.95L128.031,40.049C128.132,49.446 132.799,54.088 136.696,56.327C140.896,58.739 145.323,59 147.031,59L150.167,59C159.57,58.896 164.215,54.23 166.456,50.334ZM160.133,40C160.133,43.69 158.827,49.892 150.09,50L147.031,50C143.336,50 137.124,48.694 137.03,40L137.03,19.95C137.03,16.256 138.336,10.044 147.031,9.95L150.133,9.95C153.827,9.95 160.04,11.256 160.133,19.95L160.133,40ZM115.447,57.931L126.556,57.931L110.945,33.891L105.39,42.444L115.447,57.931ZM110.945,26.229L126.556,2.189L115.447,2.189L105.39,17.674L110.945,26.229ZM108.457,30.059L90.356,2.189L79.247,2.189L97.347,30.059L79.247,57.931L90.356,57.931L108.457,30.059ZM75.097,50.334C77.513,46.136 77.772,41.708 77.772,40L77.772,19.902C77.673,10.505 73.005,5.862 69.107,3.624C64.908,1.211 60.48,0.95 58.772,0.95L55.623,0.95C46.225,1.051 41.582,5.718 39.344,9.615C36.931,13.816 36.67,18.241 36.67,19.95L36.67,40.049C36.771,49.446 41.438,54.088 45.336,56.327C49.536,58.739 53.962,59 55.671,59L58.807,59C68.21,58.896 72.855,54.23 75.097,50.334ZM68.772,40C68.772,43.69 67.468,49.892 58.73,50L55.671,50C51.977,50 45.765,48.694 45.67,40L45.67,19.95C45.67,16.256 46.976,10.044 55.671,9.95L58.772,9.95C62.468,9.95 68.681,11.256 68.772,19.95L68.772,40ZM3.285,57.873L32.418,57.873L32.418,48.52L9.92,48.52L9.92,2.189L0,2.189L0,52.817L3.285,57.873Z" style="fill:rgb(242,242,242);fill-rule:nonzero;"/>
        </g>
    </g>
</svg>
