<?xml version="1.0" encoding="UTF-8" standalone="no"?>
<!DOCTYPE svg PUBLIC "-//W3C//DTD SVG 1.1//EN" "http://www.w3.org/Graphics/SVG/1.1/DTD/svg11.dtd">
<svg width="100%" height="100%" viewBox="0 0 2351 768" version="1.1" xmlns="http://www.w3.org/2000/svg" xmlns:xlink="http://www.w3.org/1999/xlink" xml:space="preserve" xmlns:serif="http://www.serif.com/" style="fill-rule:evenodd;clip-rule:evenodd;stroke-linejoin:round;stroke-miterlimit:2;">
    <g transform="matrix(1,0,0,1,-117.956,-2782.32)">
        <g transform="matrix(1.24538,0,0,1.24538,-263.826,-803.32)">
            <g transform="matrix(0.802965,0,0,0.802965,-321.102,2345.72)">
                <g transform="matrix(100,0,0,100,782.478,739.916)">
                    <path d="M0.3,-0.708L0.409,-0.708L0.714,-0L0.57,-0L0.504,-0.162L0.197,-0.162L0.133,-0L-0.008,-0L0.3,-0.708ZM0.46,-0.27L0.351,-0.558L0.24,-0.27L0.46,-0.27Z" style="fill:rgb(13,13,13);fill-rule:nonzero;"/>
                </g>
                <g transform="matrix(100,0,0,100,853.078,739.916)">
                    <path d="M0.072,-0.48L0.186,-0.48L0.186,-0.403L0.188,-0.403C0.199,-0.427 0.217,-0.448 0.244,-0.467C0.27,-0.485 0.301,-0.494 0.337,-0.494C0.368,-0.494 0.395,-0.489 0.418,-0.478C0.44,-0.467 0.458,-0.452 0.473,-0.434C0.487,-0.416 0.497,-0.395 0.504,-0.372C0.511,-0.349 0.514,-0.325 0.514,-0.3L0.514,-0L0.394,-0L0.394,-0.266C0.394,-0.28 0.393,-0.295 0.391,-0.31C0.389,-0.325 0.385,-0.339 0.378,-0.352C0.371,-0.364 0.362,-0.374 0.351,-0.382C0.339,-0.39 0.323,-0.394 0.304,-0.394C0.285,-0.394 0.268,-0.39 0.254,-0.383C0.24,-0.375 0.229,-0.365 0.22,-0.353C0.211,-0.341 0.204,-0.327 0.199,-0.312C0.194,-0.296 0.192,-0.28 0.192,-0.264L0.192,-0L0.072,-0L0.072,-0.48Z" style="fill:rgb(13,13,13);fill-rule:nonzero;"/>
                </g>
                <g transform="matrix(100,0,0,100,911.278,739.916)">
                    <path d="M0.004,-0.48L0.134,-0.48L0.234,-0.136L0.236,-0.136L0.339,-0.48L0.467,-0.48L0.571,-0.136L0.573,-0.136L0.675,-0.48L0.8,-0.48L0.634,-0L0.512,-0L0.403,-0.336L0.401,-0.336L0.293,-0L0.171,-0L0.004,-0.48Z" style="fill:rgb(13,13,13);fill-rule:nonzero;"/>
                </g>
                <g transform="matrix(100,0,0,100,991.678,739.916)">
                    <path d="M0.41,-0.288C0.41,-0.303 0.408,-0.318 0.404,-0.332C0.399,-0.346 0.392,-0.358 0.383,-0.369C0.374,-0.38 0.362,-0.388 0.348,-0.395C0.333,-0.401 0.316,-0.404 0.297,-0.404C0.261,-0.404 0.231,-0.393 0.206,-0.372C0.181,-0.35 0.167,-0.322 0.164,-0.288L0.41,-0.288ZM0.53,-0.234L0.53,-0.218C0.53,-0.213 0.53,-0.207 0.529,-0.202L0.164,-0.202C0.165,-0.185 0.17,-0.169 0.178,-0.155C0.185,-0.14 0.195,-0.128 0.208,-0.118C0.221,-0.107 0.235,-0.099 0.251,-0.093C0.267,-0.087 0.284,-0.084 0.301,-0.084C0.331,-0.084 0.356,-0.09 0.377,-0.101C0.398,-0.112 0.415,-0.127 0.428,-0.146L0.508,-0.082C0.461,-0.018 0.392,0.014 0.302,0.014C0.265,0.014 0.23,0.008 0.199,-0.004C0.168,-0.015 0.14,-0.032 0.118,-0.053C0.095,-0.074 0.077,-0.1 0.064,-0.132C0.05,-0.163 0.044,-0.198 0.044,-0.237C0.044,-0.276 0.05,-0.311 0.064,-0.343C0.077,-0.374 0.094,-0.401 0.117,-0.424C0.14,-0.446 0.167,-0.463 0.198,-0.476C0.229,-0.488 0.262,-0.494 0.298,-0.494C0.331,-0.494 0.362,-0.489 0.391,-0.478C0.419,-0.467 0.443,-0.45 0.464,-0.429C0.485,-0.407 0.501,-0.38 0.513,-0.348C0.524,-0.315 0.53,-0.277 0.53,-0.234Z" style="fill:rgb(13,13,13);fill-rule:nonzero;"/>
                </g>
                <g transform="matrix(100,0,0,100,1049.08,739.916)">
                    <path d="M0.335,-0.352C0.324,-0.366 0.31,-0.378 0.291,-0.389C0.272,-0.399 0.252,-0.404 0.23,-0.404C0.211,-0.404 0.193,-0.4 0.177,-0.392C0.161,-0.384 0.153,-0.371 0.153,-0.352C0.153,-0.333 0.162,-0.32 0.18,-0.313C0.197,-0.305 0.223,-0.297 0.257,-0.289C0.275,-0.285 0.293,-0.28 0.312,-0.273C0.33,-0.266 0.347,-0.258 0.362,-0.247C0.377,-0.236 0.389,-0.222 0.398,-0.206C0.407,-0.189 0.412,-0.169 0.412,-0.146C0.412,-0.117 0.407,-0.092 0.396,-0.072C0.385,-0.051 0.37,-0.035 0.352,-0.022C0.333,-0.009 0.312,-0 0.288,0.006C0.263,0.011 0.238,0.014 0.212,0.014C0.175,0.014 0.138,0.007 0.103,-0.007C0.068,-0.02 0.038,-0.04 0.015,-0.065L0.094,-0.139C0.107,-0.122 0.125,-0.107 0.146,-0.096C0.167,-0.085 0.191,-0.079 0.217,-0.079C0.226,-0.079 0.235,-0.08 0.244,-0.082C0.253,-0.084 0.261,-0.087 0.269,-0.092C0.276,-0.096 0.282,-0.102 0.287,-0.109C0.292,-0.116 0.294,-0.125 0.294,-0.136C0.294,-0.156 0.285,-0.17 0.267,-0.179C0.248,-0.188 0.221,-0.196 0.184,-0.205C0.166,-0.209 0.149,-0.214 0.132,-0.221C0.115,-0.227 0.099,-0.235 0.086,-0.246C0.073,-0.256 0.062,-0.269 0.054,-0.284C0.046,-0.299 0.042,-0.318 0.042,-0.341C0.042,-0.368 0.048,-0.391 0.059,-0.41C0.069,-0.429 0.084,-0.445 0.102,-0.458C0.12,-0.47 0.14,-0.479 0.163,-0.485C0.186,-0.491 0.209,-0.494 0.233,-0.494C0.268,-0.494 0.302,-0.488 0.335,-0.476C0.368,-0.464 0.394,-0.446 0.413,-0.421L0.335,-0.352Z" style="fill:rgb(13,13,13);fill-rule:nonzero;"/>
                </g>
                <g transform="matrix(100,0,0,100,1093.48,739.916)">
                    <path d="M0.41,-0.288C0.41,-0.303 0.408,-0.318 0.404,-0.332C0.399,-0.346 0.392,-0.358 0.383,-0.369C0.374,-0.38 0.362,-0.388 0.348,-0.395C0.333,-0.401 0.316,-0.404 0.297,-0.404C0.261,-0.404 0.231,-0.393 0.206,-0.372C0.181,-0.35 0.167,-0.322 0.164,-0.288L0.41,-0.288ZM0.53,-0.234L0.53,-0.218C0.53,-0.213 0.53,-0.207 0.529,-0.202L0.164,-0.202C0.165,-0.185 0.17,-0.169 0.178,-0.155C0.185,-0.14 0.195,-0.128 0.208,-0.118C0.221,-0.107 0.235,-0.099 0.251,-0.093C0.267,-0.087 0.284,-0.084 0.301,-0.084C0.331,-0.084 0.356,-0.09 0.377,-0.101C0.398,-0.112 0.415,-0.127 0.428,-0.146L0.508,-0.082C0.461,-0.018 0.392,0.014 0.302,0.014C0.265,0.014 0.23,0.008 0.199,-0.004C0.168,-0.015 0.14,-0.032 0.118,-0.053C0.095,-0.074 0.077,-0.1 0.064,-0.132C0.05,-0.163 0.044,-0.198 0.044,-0.237C0.044,-0.276 0.05,-0.311 0.064,-0.343C0.077,-0.374 0.094,-0.401 0.117,-0.424C0.14,-0.446 0.167,-0.463 0.198,-0.476C0.229,-0.488 0.262,-0.494 0.298,-0.494C0.331,-0.494 0.362,-0.489 0.391,-0.478C0.419,-0.467 0.443,-0.45 0.464,-0.429C0.485,-0.407 0.501,-0.38 0.513,-0.348C0.524,-0.315 0.53,-0.277 0.53,-0.234Z" style="fill:rgb(13,13,13);fill-rule:nonzero;"/>
                </g>
                <g transform="matrix(100,0,0,100,1150.88,739.916)">
                    <path d="M0.072,-0.48L0.186,-0.48L0.186,-0.403L0.188,-0.403C0.199,-0.427 0.217,-0.448 0.244,-0.467C0.27,-0.485 0.301,-0.494 0.337,-0.494C0.368,-0.494 0.395,-0.489 0.418,-0.478C0.44,-0.467 0.458,-0.452 0.473,-0.434C0.487,-0.416 0.497,-0.395 0.504,-0.372C0.511,-0.349 0.514,-0.325 0.514,-0.3L0.514,-0L0.394,-0L0.394,-0.266C0.394,-0.28 0.393,-0.295 0.391,-0.31C0.389,-0.325 0.385,-0.339 0.378,-0.352C0.371,-0.364 0.362,-0.374 0.351,-0.382C0.339,-0.39 0.323,-0.394 0.304,-0.394C0.285,-0.394 0.268,-0.39 0.254,-0.383C0.24,-0.375 0.229,-0.365 0.22,-0.353C0.211,-0.341 0.204,-0.327 0.199,-0.312C0.194,-0.296 0.192,-0.28 0.192,-0.264L0.192,-0L0.072,-0L0.072,-0.48Z" style="fill:rgb(13,13,13);fill-rule:nonzero;"/>
                </g>
                <g transform="matrix(100,0,0,100,1209.08,739.916)">
                    <path d="M0.339,-0.494C0.37,-0.494 0.397,-0.489 0.42,-0.478C0.442,-0.467 0.46,-0.452 0.475,-0.434C0.489,-0.416 0.499,-0.395 0.506,-0.372C0.513,-0.349 0.516,-0.325 0.516,-0.3L0.516,-0L0.396,-0L0.396,-0.264C0.396,-0.278 0.395,-0.293 0.393,-0.308C0.391,-0.323 0.387,-0.336 0.381,-0.349C0.374,-0.361 0.365,-0.371 0.354,-0.379C0.342,-0.387 0.326,-0.391 0.307,-0.391C0.288,-0.391 0.271,-0.387 0.257,-0.38C0.243,-0.373 0.231,-0.363 0.222,-0.351C0.213,-0.338 0.206,-0.324 0.201,-0.309C0.196,-0.294 0.194,-0.278 0.194,-0.262L0.194,-0L0.074,-0L0.074,-0.756L0.194,-0.756L0.194,-0.413L0.196,-0.413C0.201,-0.423 0.208,-0.433 0.217,-0.443C0.226,-0.452 0.236,-0.461 0.248,-0.469C0.26,-0.476 0.274,-0.482 0.289,-0.487C0.304,-0.492 0.321,-0.494 0.339,-0.494Z" style="fill:rgb(13,13,13);fill-rule:nonzero;"/>
                </g>
                <g transform="matrix(100,0,0,100,1267.48,739.916)">
                    <path d="M0.41,-0.288C0.41,-0.303 0.408,-0.318 0.404,-0.332C0.399,-0.346 0.392,-0.358 0.383,-0.369C0.374,-0.38 0.362,-0.388 0.348,-0.395C0.333,-0.401 0.316,-0.404 0.297,-0.404C0.261,-0.404 0.231,-0.393 0.206,-0.372C0.181,-0.35 0.167,-0.322 0.164,-0.288L0.41,-0.288ZM0.53,-0.234L0.53,-0.218C0.53,-0.213 0.53,-0.207 0.529,-0.202L0.164,-0.202C0.165,-0.185 0.17,-0.169 0.178,-0.155C0.185,-0.14 0.195,-0.128 0.208,-0.118C0.221,-0.107 0.235,-0.099 0.251,-0.093C0.267,-0.087 0.284,-0.084 0.301,-0.084C0.331,-0.084 0.356,-0.09 0.377,-0.101C0.398,-0.112 0.415,-0.127 0.428,-0.146L0.508,-0.082C0.461,-0.018 0.392,0.014 0.302,0.014C0.265,0.014 0.23,0.008 0.199,-0.004C0.168,-0.015 0.14,-0.032 0.118,-0.053C0.095,-0.074 0.077,-0.1 0.064,-0.132C0.05,-0.163 0.044,-0.198 0.044,-0.237C0.044,-0.276 0.05,-0.311 0.064,-0.343C0.077,-0.374 0.094,-0.401 0.117,-0.424C0.14,-0.446 0.167,-0.463 0.198,-0.476C0.229,-0.488 0.262,-0.494 0.298,-0.494C0.331,-0.494 0.362,-0.489 0.391,-0.478C0.419,-0.467 0.443,-0.45 0.464,-0.429C0.485,-0.407 0.501,-0.38 0.513,-0.348C0.524,-0.315 0.53,-0.277 0.53,-0.234Z" style="fill:rgb(13,13,13);fill-rule:nonzero;"/>
                </g>
                <g transform="matrix(100,0,0,100,1324.88,739.916)">
                    <path d="M0.074,-0.48L0.194,-0.48L0.194,-0L0.074,-0L0.074,-0.48ZM0.057,-0.643C0.057,-0.662 0.064,-0.679 0.079,-0.694C0.093,-0.708 0.111,-0.715 0.133,-0.715C0.155,-0.715 0.173,-0.708 0.189,-0.695C0.204,-0.681 0.211,-0.664 0.211,-0.643C0.211,-0.622 0.204,-0.605 0.189,-0.592C0.173,-0.578 0.155,-0.571 0.133,-0.571C0.111,-0.571 0.093,-0.578 0.079,-0.593C0.064,-0.607 0.057,-0.624 0.057,-0.643Z" style="fill:rgb(13,13,13);fill-rule:nonzero;"/>
                </g>
                <g transform="matrix(100,0,0,100,1351.68,739.916)">
                    <path d="M0.003,-0.384L0.003,-0.48L0.087,-0.48L0.087,-0.619L0.205,-0.619L0.205,-0.48L0.325,-0.48L0.325,-0.384L0.205,-0.384L0.205,-0.161C0.205,-0.14 0.209,-0.122 0.217,-0.108C0.224,-0.094 0.241,-0.087 0.268,-0.087C0.276,-0.087 0.285,-0.088 0.294,-0.09C0.303,-0.091 0.312,-0.094 0.319,-0.097L0.323,-0.003C0.312,0.001 0.3,0.004 0.285,0.007C0.27,0.009 0.256,0.01 0.243,0.01C0.211,0.01 0.185,0.006 0.165,-0.004C0.145,-0.013 0.129,-0.025 0.118,-0.041C0.106,-0.056 0.098,-0.074 0.094,-0.095C0.089,-0.115 0.087,-0.137 0.087,-0.16L0.087,-0.384L0.003,-0.384Z" style="fill:rgb(13,13,13);fill-rule:nonzero;"/>
                </g>
                <rect x="782.478" y="747.416" width="603.2" height="5" style="fill:rgb(13,13,13);"/>
            </g>
            <g transform="matrix(0.802965,0,0,0.802965,62.644,2490.74)">
                <g transform="matrix(54.1667,0,0,54.1667,782.478,706.295)">
                    <path d="M0.312,0.003C0.258,0.003 0.21,-0.011 0.169,-0.038C0.127,-0.065 0.094,-0.103 0.071,-0.154C0.048,-0.205 0.036,-0.264 0.036,-0.332C0.036,-0.441 0.061,-0.524 0.11,-0.581C0.159,-0.638 0.226,-0.666 0.312,-0.665C0.366,-0.665 0.414,-0.652 0.456,-0.625C0.497,-0.598 0.53,-0.56 0.553,-0.509C0.576,-0.458 0.588,-0.399 0.588,-0.332C0.588,-0.263 0.576,-0.203 0.553,-0.152C0.53,-0.101 0.497,-0.063 0.456,-0.036C0.414,-0.009 0.366,0.004 0.312,0.003ZM0.311,-0.09C0.368,-0.09 0.411,-0.112 0.442,-0.156C0.472,-0.2 0.487,-0.259 0.488,-0.334C0.487,-0.407 0.472,-0.464 0.442,-0.508C0.411,-0.551 0.368,-0.572 0.311,-0.572C0.255,-0.572 0.212,-0.55 0.182,-0.507C0.152,-0.464 0.137,-0.405 0.136,-0.332C0.137,-0.258 0.152,-0.199 0.182,-0.156C0.212,-0.112 0.255,-0.09 0.311,-0.09Z" style="fill:rgb(13,13,13);fill-rule:nonzero;"/>
                </g>
                <g transform="matrix(54.1667,0,0,54.1667,816.278,706.295)">
                    <path d="M0.028,-0.208C0.028,-0.254 0.041,-0.293 0.066,-0.326C0.091,-0.358 0.122,-0.381 0.157,-0.396C0.135,-0.41 0.118,-0.427 0.106,-0.446C0.094,-0.464 0.088,-0.488 0.088,-0.515C0.088,-0.544 0.095,-0.57 0.111,-0.593C0.126,-0.616 0.146,-0.634 0.173,-0.647C0.199,-0.66 0.228,-0.666 0.261,-0.666C0.293,-0.666 0.322,-0.66 0.349,-0.647C0.376,-0.634 0.397,-0.616 0.412,-0.594C0.427,-0.571 0.435,-0.546 0.435,-0.519C0.435,-0.49 0.429,-0.467 0.417,-0.448C0.405,-0.428 0.388,-0.411 0.365,-0.396C0.401,-0.381 0.432,-0.357 0.457,-0.325C0.482,-0.292 0.495,-0.253 0.495,-0.208C0.495,-0.17 0.485,-0.134 0.464,-0.102C0.443,-0.069 0.415,-0.042 0.379,-0.022C0.343,-0.002 0.303,0.008 0.26,0.008C0.217,0.008 0.177,-0.002 0.142,-0.022C0.107,-0.041 0.079,-0.068 0.059,-0.101C0.038,-0.134 0.028,-0.17 0.028,-0.208ZM0.182,-0.504C0.182,-0.483 0.19,-0.466 0.207,-0.451C0.223,-0.436 0.242,-0.429 0.263,-0.429C0.284,-0.429 0.303,-0.436 0.319,-0.451C0.334,-0.466 0.342,-0.483 0.342,-0.504C0.342,-0.527 0.334,-0.547 0.319,-0.562C0.304,-0.577 0.285,-0.585 0.263,-0.585C0.241,-0.585 0.222,-0.577 0.206,-0.562C0.19,-0.547 0.182,-0.527 0.182,-0.504ZM0.127,-0.212C0.127,-0.187 0.133,-0.165 0.145,-0.144C0.157,-0.123 0.173,-0.106 0.194,-0.093C0.214,-0.08 0.236,-0.074 0.26,-0.074C0.285,-0.074 0.308,-0.08 0.329,-0.093C0.349,-0.106 0.366,-0.123 0.379,-0.144C0.392,-0.165 0.398,-0.187 0.398,-0.212C0.398,-0.237 0.392,-0.259 0.38,-0.28C0.368,-0.301 0.352,-0.317 0.331,-0.33C0.31,-0.342 0.287,-0.348 0.262,-0.348C0.238,-0.348 0.216,-0.342 0.195,-0.33C0.174,-0.318 0.158,-0.302 0.146,-0.281C0.133,-0.26 0.127,-0.237 0.127,-0.212Z" style="fill:rgb(13,13,13);fill-rule:nonzero;"/>
                </g>
                <g transform="matrix(54.1667,0,0,54.1667,844.608,706.295)">
                    <path d="M0.034,-0.325C0.034,-0.34 0.039,-0.352 0.05,-0.363C0.061,-0.374 0.073,-0.379 0.087,-0.379C0.1,-0.379 0.111,-0.374 0.122,-0.363C0.133,-0.352 0.138,-0.34 0.138,-0.325C0.138,-0.31 0.133,-0.297 0.122,-0.287C0.111,-0.277 0.1,-0.272 0.087,-0.272C0.073,-0.272 0.061,-0.277 0.05,-0.287C0.039,-0.297 0.034,-0.31 0.034,-0.325ZM0.034,-0.053C0.034,-0.068 0.039,-0.08 0.05,-0.091C0.061,-0.102 0.073,-0.107 0.087,-0.107C0.1,-0.107 0.111,-0.102 0.122,-0.091C0.133,-0.08 0.138,-0.068 0.138,-0.053C0.138,-0.038 0.133,-0.025 0.122,-0.015C0.111,-0.005 0.1,-0 0.087,-0C0.073,-0 0.061,-0.005 0.05,-0.015C0.039,-0.025 0.034,-0.038 0.034,-0.053Z" style="fill:rgb(13,13,13);fill-rule:nonzero;"/>
                </g>
                <g transform="matrix(54.1667,0,0,54.1667,854.249,706.295)">
                    <path d="M0.312,0.003C0.258,0.003 0.21,-0.011 0.169,-0.038C0.127,-0.065 0.094,-0.103 0.071,-0.154C0.048,-0.205 0.036,-0.264 0.036,-0.332C0.036,-0.441 0.061,-0.524 0.11,-0.581C0.159,-0.638 0.226,-0.666 0.312,-0.665C0.366,-0.665 0.414,-0.652 0.456,-0.625C0.497,-0.598 0.53,-0.56 0.553,-0.509C0.576,-0.458 0.588,-0.399 0.588,-0.332C0.588,-0.263 0.576,-0.203 0.553,-0.152C0.53,-0.101 0.497,-0.063 0.456,-0.036C0.414,-0.009 0.366,0.004 0.312,0.003ZM0.311,-0.09C0.368,-0.09 0.411,-0.112 0.442,-0.156C0.472,-0.2 0.487,-0.259 0.488,-0.334C0.487,-0.407 0.472,-0.464 0.442,-0.508C0.411,-0.551 0.368,-0.572 0.311,-0.572C0.255,-0.572 0.212,-0.55 0.182,-0.507C0.152,-0.464 0.137,-0.405 0.136,-0.332C0.137,-0.258 0.152,-0.199 0.182,-0.156C0.212,-0.112 0.255,-0.09 0.311,-0.09Z" style="fill:rgb(13,13,13);fill-rule:nonzero;"/>
                </g>
                <g transform="matrix(54.1667,0,0,54.1667,888.049,706.295)">
                    <path d="M0.312,0.003C0.258,0.003 0.21,-0.011 0.169,-0.038C0.127,-0.065 0.094,-0.103 0.071,-0.154C0.048,-0.205 0.036,-0.264 0.036,-0.332C0.036,-0.441 0.061,-0.524 0.11,-0.581C0.159,-0.638 0.226,-0.666 0.312,-0.665C0.366,-0.665 0.414,-0.652 0.456,-0.625C0.497,-0.598 0.53,-0.56 0.553,-0.509C0.576,-0.458 0.588,-0.399 0.588,-0.332C0.588,-0.263 0.576,-0.203 0.553,-0.152C0.53,-0.101 0.497,-0.063 0.456,-0.036C0.414,-0.009 0.366,0.004 0.312,0.003ZM0.311,-0.09C0.368,-0.09 0.411,-0.112 0.442,-0.156C0.472,-0.2 0.487,-0.259 0.488,-0.334C0.487,-0.407 0.472,-0.464 0.442,-0.508C0.411,-0.551 0.368,-0.572 0.311,-0.572C0.255,-0.572 0.212,-0.55 0.182,-0.507C0.152,-0.464 0.137,-0.405 0.136,-0.332C0.137,-0.258 0.152,-0.199 0.182,-0.156C0.212,-0.112 0.255,-0.09 0.311,-0.09Z" style="fill:rgb(13,13,13);fill-rule:nonzero;"/>
                </g>
            </g>
            <g transform="matrix(0.802965,0,0,0.802965,637.479,2490.74)">
                <g transform="matrix(54.1667,0,0,54.1667,782.478,706.295)">
                    <path d="M0.226,-0.658L0.226,-0L0.128,-0L0.128,-0.565L0.053,-0.565L0.053,-0.658L0.226,-0.658Z" style="fill:rgb(13,13,13);fill-rule:nonzero;"/>
                </g>
                <g transform="matrix(54.1667,0,0,54.1667,800.353,706.295)">
                    <path d="M0.502,-0.094L0.502,-0L0.054,-0L0.087,-0.033C0.155,-0.101 0.208,-0.156 0.246,-0.198C0.284,-0.24 0.316,-0.283 0.342,-0.326C0.367,-0.369 0.38,-0.409 0.38,-0.448C0.38,-0.489 0.368,-0.52 0.344,-0.541C0.32,-0.562 0.291,-0.573 0.256,-0.573C0.229,-0.573 0.206,-0.567 0.188,-0.556C0.169,-0.545 0.156,-0.53 0.148,-0.513C0.139,-0.496 0.135,-0.478 0.135,-0.461C0.135,-0.418 0.148,-0.383 0.174,-0.356L0.115,-0.302C0.093,-0.315 0.075,-0.338 0.062,-0.37C0.048,-0.401 0.041,-0.431 0.041,-0.459C0.041,-0.496 0.05,-0.53 0.069,-0.562C0.087,-0.593 0.113,-0.619 0.148,-0.638C0.183,-0.657 0.224,-0.666 0.272,-0.666C0.313,-0.666 0.349,-0.657 0.381,-0.638C0.412,-0.619 0.437,-0.593 0.454,-0.561C0.471,-0.529 0.48,-0.494 0.48,-0.456C0.48,-0.418 0.471,-0.38 0.453,-0.342C0.435,-0.304 0.413,-0.268 0.387,-0.235C0.36,-0.202 0.325,-0.16 0.281,-0.111L0.266,-0.094L0.502,-0.094Z" style="fill:rgb(13,13,13);fill-rule:nonzero;"/>
                </g>
                <g transform="matrix(54.1667,0,0,54.1667,829.874,706.295)">
                    <path d="M0.034,-0.325C0.034,-0.34 0.039,-0.352 0.05,-0.363C0.061,-0.374 0.073,-0.379 0.087,-0.379C0.1,-0.379 0.111,-0.374 0.122,-0.363C0.133,-0.352 0.138,-0.34 0.138,-0.325C0.138,-0.31 0.133,-0.297 0.122,-0.287C0.111,-0.277 0.1,-0.272 0.087,-0.272C0.073,-0.272 0.061,-0.277 0.05,-0.287C0.039,-0.297 0.034,-0.31 0.034,-0.325ZM0.034,-0.053C0.034,-0.068 0.039,-0.08 0.05,-0.091C0.061,-0.102 0.073,-0.107 0.087,-0.107C0.1,-0.107 0.111,-0.102 0.122,-0.091C0.133,-0.08 0.138,-0.068 0.138,-0.053C0.138,-0.038 0.133,-0.025 0.122,-0.015C0.111,-0.005 0.1,-0 0.087,-0C0.073,-0 0.061,-0.005 0.05,-0.015C0.039,-0.025 0.034,-0.038 0.034,-0.053Z" style="fill:rgb(13,13,13);fill-rule:nonzero;"/>
                </g>
                <g transform="matrix(54.1667,0,0,54.1667,839.516,706.295)">
                    <path d="M0.312,0.003C0.258,0.003 0.21,-0.011 0.169,-0.038C0.127,-0.065 0.094,-0.103 0.071,-0.154C0.048,-0.205 0.036,-0.264 0.036,-0.332C0.036,-0.441 0.061,-0.524 0.11,-0.581C0.159,-0.638 0.226,-0.666 0.312,-0.665C0.366,-0.665 0.414,-0.652 0.456,-0.625C0.497,-0.598 0.53,-0.56 0.553,-0.509C0.576,-0.458 0.588,-0.399 0.588,-0.332C0.588,-0.263 0.576,-0.203 0.553,-0.152C0.53,-0.101 0.497,-0.063 0.456,-0.036C0.414,-0.009 0.366,0.004 0.312,0.003ZM0.311,-0.09C0.368,-0.09 0.411,-0.112 0.442,-0.156C0.472,-0.2 0.487,-0.259 0.488,-0.334C0.487,-0.407 0.472,-0.464 0.442,-0.508C0.411,-0.551 0.368,-0.572 0.311,-0.572C0.255,-0.572 0.212,-0.55 0.182,-0.507C0.152,-0.464 0.137,-0.405 0.136,-0.332C0.137,-0.258 0.152,-0.199 0.182,-0.156C0.212,-0.112 0.255,-0.09 0.311,-0.09Z" style="fill:rgb(13,13,13);fill-rule:nonzero;"/>
                </g>
                <g transform="matrix(54.1667,0,0,54.1667,873.316,706.295)">
                    <path d="M0.312,0.003C0.258,0.003 0.21,-0.011 0.169,-0.038C0.127,-0.065 0.094,-0.103 0.071,-0.154C0.048,-0.205 0.036,-0.264 0.036,-0.332C0.036,-0.441 0.061,-0.524 0.11,-0.581C0.159,-0.638 0.226,-0.666 0.312,-0.665C0.366,-0.665 0.414,-0.652 0.456,-0.625C0.497,-0.598 0.53,-0.56 0.553,-0.509C0.576,-0.458 0.588,-0.399 0.588,-0.332C0.588,-0.263 0.576,-0.203 0.553,-0.152C0.53,-0.101 0.497,-0.063 0.456,-0.036C0.414,-0.009 0.366,0.004 0.312,0.003ZM0.311,-0.09C0.368,-0.09 0.411,-0.112 0.442,-0.156C0.472,-0.2 0.487,-0.259 0.488,-0.334C0.487,-0.407 0.472,-0.464 0.442,-0.508C0.411,-0.551 0.368,-0.572 0.311,-0.572C0.255,-0.572 0.212,-0.55 0.182,-0.507C0.152,-0.464 0.137,-0.405 0.136,-0.332C0.137,-0.258 0.152,-0.199 0.182,-0.156C0.212,-0.112 0.255,-0.09 0.311,-0.09Z" style="fill:rgb(13,13,13);fill-rule:nonzero;"/>
                </g>
            </g>
            <g>
                <g transform="matrix(0.802965,0,0,0.802965,-321.102,2563.51)">
                    <g transform="matrix(54.1667,0,0,54.1667,782.478,706.295)">
                        <path d="M0.823,-0.746L0.823,-0L0.727,-0L0.727,-0.468L0.461,-0.091L0.459,-0.091L0.198,-0.455L0.198,-0L0.104,-0L0.104,-0.746L0.105,-0.746L0.461,-0.242L0.822,-0.746L0.823,-0.746Z" style="fill:rgb(13,13,13);fill-rule:nonzero;"/>
                    </g>
                    <g transform="matrix(54.1667,0,0,54.1667,832.691,706.295)">
                        <path d="M0.045,-0.211C0.045,-0.252 0.055,-0.289 0.075,-0.323C0.094,-0.356 0.122,-0.383 0.157,-0.402C0.192,-0.421 0.231,-0.431 0.275,-0.431C0.319,-0.431 0.358,-0.421 0.393,-0.402C0.427,-0.383 0.454,-0.356 0.473,-0.323C0.492,-0.29 0.501,-0.252 0.501,-0.211C0.501,-0.17 0.492,-0.132 0.473,-0.099C0.454,-0.065 0.427,-0.038 0.392,-0.019C0.357,0 0.318,0.01 0.273,0.01C0.23,0.01 0.191,0.001 0.156,-0.018C0.121,-0.036 0.094,-0.062 0.075,-0.095C0.055,-0.128 0.045,-0.167 0.045,-0.211ZM0.139,-0.21C0.139,-0.184 0.145,-0.16 0.157,-0.138C0.168,-0.116 0.184,-0.099 0.205,-0.086C0.225,-0.073 0.247,-0.067 0.272,-0.067C0.311,-0.067 0.343,-0.081 0.368,-0.108C0.393,-0.135 0.406,-0.169 0.406,-0.21C0.406,-0.251 0.393,-0.285 0.368,-0.313C0.343,-0.34 0.311,-0.354 0.272,-0.354C0.247,-0.354 0.224,-0.347 0.204,-0.335C0.184,-0.322 0.168,-0.304 0.157,-0.282C0.145,-0.26 0.139,-0.236 0.139,-0.21Z" style="fill:rgb(13,13,13);fill-rule:nonzero;"/>
                    </g>
                </g>
                <rect x="481.669" y="3109.78" width="1712.38" height="33.121" style="fill:rgb(134,153,167);"/>
                <g transform="matrix(0.211697,0,0,1,479.801,0)">
                    <path d="M2194.05,3119.72L2194.05,3132.97C2194.05,3138.45 2173.01,3142.9 2147.11,3142.9L528.606,3142.9C502.701,3142.9 481.669,3138.45 481.669,3132.97L481.669,3119.72C481.669,3114.23 502.701,3109.78 528.606,3109.78L2147.11,3109.78C2173.01,3109.78 2194.05,3114.23 2194.05,3119.72Z" style="fill:rgb(1,17,38);"/>
                </g>
                <g transform="matrix(0.337884,0,0,1,1452.71,0)">
                    <path d="M2194.05,3119.72L2194.05,3132.97C2194.05,3138.45 2180.87,3142.9 2164.64,3142.9L511.077,3142.9C494.846,3142.9 481.669,3138.45 481.669,3132.97L481.669,3119.72C481.669,3114.23 494.846,3109.78 511.077,3109.78L2164.64,3109.78C2180.87,3109.78 2194.05,3114.23 2194.05,3119.72Z" style="fill:rgb(1,17,38);"/>
                </g>
            </g>
            <g transform="matrix(1,0,0,1,0,58.816)">
                <g transform="matrix(0.802965,0,0,0.802965,-321.102,2563.51)">
                    <g transform="matrix(54.1667,0,0,54.1667,782.478,706.295)">
                        <path d="M0.104,-0.723L0.302,-0.723C0.392,-0.723 0.466,-0.705 0.526,-0.67C0.584,-0.634 0.627,-0.588 0.655,-0.532C0.682,-0.475 0.695,-0.416 0.695,-0.353C0.695,-0.283 0.679,-0.221 0.646,-0.168C0.613,-0.114 0.57,-0.073 0.515,-0.044C0.46,-0.015 0.401,-0 0.337,-0L0.104,-0L0.104,-0.723ZM0.318,-0.094C0.371,-0.094 0.419,-0.105 0.461,-0.126C0.503,-0.147 0.536,-0.177 0.56,-0.217C0.583,-0.257 0.595,-0.305 0.595,-0.36C0.595,-0.417 0.583,-0.465 0.558,-0.506C0.533,-0.547 0.501,-0.578 0.46,-0.599C0.419,-0.62 0.374,-0.63 0.327,-0.63L0.201,-0.63L0.201,-0.094L0.318,-0.094Z" style="fill:rgb(13,13,13);fill-rule:nonzero;"/>
                    </g>
                    <g transform="matrix(54.1667,0,0,54.1667,823.32,706.295)">
                        <path d="M0.174,-0.414L0.174,-0L0.081,-0L0.081,-0.414L0.174,-0.414ZM0.074,-0.563C0.074,-0.578 0.08,-0.59 0.091,-0.6C0.102,-0.61 0.115,-0.615 0.13,-0.615C0.145,-0.615 0.158,-0.61 0.169,-0.6C0.18,-0.59 0.185,-0.578 0.185,-0.563C0.185,-0.548 0.18,-0.536 0.169,-0.526C0.158,-0.516 0.145,-0.511 0.13,-0.511C0.115,-0.511 0.102,-0.516 0.091,-0.526C0.08,-0.536 0.074,-0.548 0.074,-0.563Z" style="fill:rgb(13,13,13);fill-rule:nonzero;"/>
                    </g>
                </g>
                <rect x="481.669" y="3109.78" width="1712.38" height="33.121" style="fill:rgb(134,153,167);"/>
                <g transform="matrix(0.211697,0,0,1,479.801,0)">
                    <path d="M2194.05,3119.72L2194.05,3132.97C2194.05,3138.45 2173.01,3142.9 2147.11,3142.9L528.606,3142.9C502.701,3142.9 481.669,3138.45 481.669,3132.97L481.669,3119.72C481.669,3114.23 502.701,3109.78 528.606,3109.78L2147.11,3109.78C2173.01,3109.78 2194.05,3114.23 2194.05,3119.72Z" style="fill:rgb(1,17,38);"/>
                </g>
                <g transform="matrix(0.31674,0,0,1,1462.9,0)">
                    <path d="M2194.05,3119.72L2194.05,3132.97C2194.05,3138.45 2179.99,3142.9 2162.67,3142.9L513.04,3142.9C495.726,3142.9 481.669,3138.45 481.669,3132.97L481.669,3119.72C481.669,3114.23 495.726,3109.78 513.04,3109.78L2162.67,3109.78C2179.99,3109.78 2194.05,3114.23 2194.05,3119.72Z" style="fill:rgb(1,17,38);"/>
                </g>
            </g>
            <g transform="matrix(0.802965,0,0,0.802965,1204.37,2490.74)">
                <g transform="matrix(54.1667,0,0,54.1667,782.478,706.295)">
                    <path d="M0.502,-0.094L0.502,-0L0.054,-0L0.087,-0.033C0.155,-0.101 0.208,-0.156 0.246,-0.198C0.284,-0.24 0.316,-0.283 0.342,-0.326C0.367,-0.369 0.38,-0.409 0.38,-0.448C0.38,-0.489 0.368,-0.52 0.344,-0.541C0.32,-0.562 0.291,-0.573 0.256,-0.573C0.229,-0.573 0.206,-0.567 0.188,-0.556C0.169,-0.545 0.156,-0.53 0.148,-0.513C0.139,-0.496 0.135,-0.478 0.135,-0.461C0.135,-0.418 0.148,-0.383 0.174,-0.356L0.115,-0.302C0.093,-0.315 0.075,-0.338 0.062,-0.37C0.048,-0.401 0.041,-0.431 0.041,-0.459C0.041,-0.496 0.05,-0.53 0.069,-0.562C0.087,-0.593 0.113,-0.619 0.148,-0.638C0.183,-0.657 0.224,-0.666 0.272,-0.666C0.313,-0.666 0.349,-0.657 0.381,-0.638C0.412,-0.619 0.437,-0.593 0.454,-0.561C0.471,-0.529 0.48,-0.494 0.48,-0.456C0.48,-0.418 0.471,-0.38 0.453,-0.342C0.435,-0.304 0.413,-0.268 0.387,-0.235C0.36,-0.202 0.325,-0.16 0.281,-0.111L0.266,-0.094L0.502,-0.094Z" style="fill:rgb(13,13,13);fill-rule:nonzero;"/>
                </g>
                <g transform="matrix(54.1667,0,0,54.1667,811.999,706.295)">
                    <path d="M0.312,0.003C0.258,0.003 0.21,-0.011 0.169,-0.038C0.127,-0.065 0.094,-0.103 0.071,-0.154C0.048,-0.205 0.036,-0.264 0.036,-0.332C0.036,-0.441 0.061,-0.524 0.11,-0.581C0.159,-0.638 0.226,-0.666 0.312,-0.665C0.366,-0.665 0.414,-0.652 0.456,-0.625C0.497,-0.598 0.53,-0.56 0.553,-0.509C0.576,-0.458 0.588,-0.399 0.588,-0.332C0.588,-0.263 0.576,-0.203 0.553,-0.152C0.53,-0.101 0.497,-0.063 0.456,-0.036C0.414,-0.009 0.366,0.004 0.312,0.003ZM0.311,-0.09C0.368,-0.09 0.411,-0.112 0.442,-0.156C0.472,-0.2 0.487,-0.259 0.488,-0.334C0.487,-0.407 0.472,-0.464 0.442,-0.508C0.411,-0.551 0.368,-0.572 0.311,-0.572C0.255,-0.572 0.212,-0.55 0.182,-0.507C0.152,-0.464 0.137,-0.405 0.136,-0.332C0.137,-0.258 0.152,-0.199 0.182,-0.156C0.212,-0.112 0.255,-0.09 0.311,-0.09Z" style="fill:rgb(13,13,13);fill-rule:nonzero;"/>
                </g>
                <g transform="matrix(54.1667,0,0,54.1667,845.799,706.295)">
                    <path d="M0.034,-0.325C0.034,-0.34 0.039,-0.352 0.05,-0.363C0.061,-0.374 0.073,-0.379 0.087,-0.379C0.1,-0.379 0.111,-0.374 0.122,-0.363C0.133,-0.352 0.138,-0.34 0.138,-0.325C0.138,-0.31 0.133,-0.297 0.122,-0.287C0.111,-0.277 0.1,-0.272 0.087,-0.272C0.073,-0.272 0.061,-0.277 0.05,-0.287C0.039,-0.297 0.034,-0.31 0.034,-0.325ZM0.034,-0.053C0.034,-0.068 0.039,-0.08 0.05,-0.091C0.061,-0.102 0.073,-0.107 0.087,-0.107C0.1,-0.107 0.111,-0.102 0.122,-0.091C0.133,-0.08 0.138,-0.068 0.138,-0.053C0.138,-0.038 0.133,-0.025 0.122,-0.015C0.111,-0.005 0.1,-0 0.087,-0C0.073,-0 0.061,-0.005 0.05,-0.015C0.039,-0.025 0.034,-0.038 0.034,-0.053Z" style="fill:rgb(13,13,13);fill-rule:nonzero;"/>
                </g>
                <g transform="matrix(54.1667,0,0,54.1667,855.441,706.295)">
                    <path d="M0.312,0.003C0.258,0.003 0.21,-0.011 0.169,-0.038C0.127,-0.065 0.094,-0.103 0.071,-0.154C0.048,-0.205 0.036,-0.264 0.036,-0.332C0.036,-0.441 0.061,-0.524 0.11,-0.581C0.159,-0.638 0.226,-0.666 0.312,-0.665C0.366,-0.665 0.414,-0.652 0.456,-0.625C0.497,-0.598 0.53,-0.56 0.553,-0.509C0.576,-0.458 0.588,-0.399 0.588,-0.332C0.588,-0.263 0.576,-0.203 0.553,-0.152C0.53,-0.101 0.497,-0.063 0.456,-0.036C0.414,-0.009 0.366,0.004 0.312,0.003ZM0.311,-0.09C0.368,-0.09 0.411,-0.112 0.442,-0.156C0.472,-0.2 0.487,-0.259 0.488,-0.334C0.487,-0.407 0.472,-0.464 0.442,-0.508C0.411,-0.551 0.368,-0.572 0.311,-0.572C0.255,-0.572 0.212,-0.55 0.182,-0.507C0.152,-0.464 0.137,-0.405 0.136,-0.332C0.137,-0.258 0.152,-0.199 0.182,-0.156C0.212,-0.112 0.255,-0.09 0.311,-0.09Z" style="fill:rgb(13,13,13);fill-rule:nonzero;"/>
                </g>
                <g transform="matrix(54.1667,0,0,54.1667,889.241,706.295)">
                    <path d="M0.312,0.003C0.258,0.003 0.21,-0.011 0.169,-0.038C0.127,-0.065 0.094,-0.103 0.071,-0.154C0.048,-0.205 0.036,-0.264 0.036,-0.332C0.036,-0.441 0.061,-0.524 0.11,-0.581C0.159,-0.638 0.226,-0.666 0.312,-0.665C0.366,-0.665 0.414,-0.652 0.456,-0.625C0.497,-0.598 0.53,-0.56 0.553,-0.509C0.576,-0.458 0.588,-0.399 0.588,-0.332C0.588,-0.263 0.576,-0.203 0.553,-0.152C0.53,-0.101 0.497,-0.063 0.456,-0.036C0.414,-0.009 0.366,0.004 0.312,0.003ZM0.311,-0.09C0.368,-0.09 0.411,-0.112 0.442,-0.156C0.472,-0.2 0.487,-0.259 0.488,-0.334C0.487,-0.407 0.472,-0.464 0.442,-0.508C0.411,-0.551 0.368,-0.572 0.311,-0.572C0.255,-0.572 0.212,-0.55 0.182,-0.507C0.152,-0.464 0.137,-0.405 0.136,-0.332C0.137,-0.258 0.152,-0.199 0.182,-0.156C0.212,-0.112 0.255,-0.09 0.311,-0.09Z" style="fill:rgb(13,13,13);fill-rule:nonzero;"/>
                </g>
            </g>
            <g transform="matrix(1,0,0,1,0,117.632)">
                <g transform="matrix(0.802965,0,0,0.802965,-321.102,2563.51)">
                    <g transform="matrix(54.1667,0,0,54.1667,782.478,706.295)">
                        <path d="M0.823,-0.746L0.823,-0L0.727,-0L0.727,-0.468L0.461,-0.091L0.459,-0.091L0.198,-0.455L0.198,-0L0.104,-0L0.104,-0.746L0.105,-0.746L0.461,-0.242L0.822,-0.746L0.823,-0.746Z" style="fill:rgb(13,13,13);fill-rule:nonzero;"/>
                    </g>
                    <g transform="matrix(54.1667,0,0,54.1667,832.691,706.295)">
                        <path d="M0.174,-0.414L0.174,-0L0.081,-0L0.081,-0.414L0.174,-0.414ZM0.074,-0.563C0.074,-0.578 0.08,-0.59 0.091,-0.6C0.102,-0.61 0.115,-0.615 0.13,-0.615C0.145,-0.615 0.158,-0.61 0.169,-0.6C0.18,-0.59 0.185,-0.578 0.185,-0.563C0.185,-0.548 0.18,-0.536 0.169,-0.526C0.158,-0.516 0.145,-0.511 0.13,-0.511C0.115,-0.511 0.102,-0.516 0.091,-0.526C0.08,-0.536 0.074,-0.548 0.074,-0.563Z" style="fill:rgb(13,13,13);fill-rule:nonzero;"/>
                    </g>
                </g>
                <rect x="481.669" y="3109.78" width="1712.38" height="33.121" style="fill:rgb(134,153,167);"/>
                <g transform="matrix(0.27351,0,0,1,450.028,0)">
                    <path d="M2194.05,3119.72L2194.05,3132.97C2194.05,3138.45 2177.77,3142.9 2157.72,3142.9L517.998,3142.9C497.947,3142.9 481.669,3138.45 481.669,3132.97L481.669,3119.72C481.669,3114.23 497.947,3109.78 517.998,3109.78L2157.72,3109.78C2177.77,3109.78 2194.05,3114.23 2194.05,3119.72Z" style="fill:rgb(1,17,38);"/>
                </g>
                <g transform="matrix(0.31674,0,0,1,1462.9,0)">
                    <path d="M2194.05,3119.72L2194.05,3132.97C2194.05,3138.45 2179.99,3142.9 2162.67,3142.9L513.04,3142.9C495.726,3142.9 481.669,3138.45 481.669,3132.97L481.669,3119.72C481.669,3114.23 495.726,3109.78 513.04,3109.78L2162.67,3109.78C2179.99,3109.78 2194.05,3114.23 2194.05,3119.72Z" style="fill:rgb(1,17,38);"/>
                </g>
            </g>
            <g>
                <g transform="matrix(0.802965,0,0,0.802965,-321.102,2563.51)">
                    <g transform="matrix(54.1667,0,0,54.1667,782.478,706.295)">
                        <path d="M0.823,-0.746L0.823,-0L0.727,-0L0.727,-0.468L0.461,-0.091L0.459,-0.091L0.198,-0.455L0.198,-0L0.104,-0L0.104,-0.746L0.105,-0.746L0.461,-0.242L0.822,-0.746L0.823,-0.746Z" style="fill:rgb(13,13,13);fill-rule:nonzero;"/>
                    </g>
                    <g transform="matrix(54.1667,0,0,54.1667,832.691,706.295)">
                        <path d="M0.045,-0.211C0.045,-0.252 0.055,-0.289 0.075,-0.323C0.094,-0.356 0.122,-0.383 0.157,-0.402C0.192,-0.421 0.231,-0.431 0.275,-0.431C0.319,-0.431 0.358,-0.421 0.393,-0.402C0.427,-0.383 0.454,-0.356 0.473,-0.323C0.492,-0.29 0.501,-0.252 0.501,-0.211C0.501,-0.17 0.492,-0.132 0.473,-0.099C0.454,-0.065 0.427,-0.038 0.392,-0.019C0.357,0 0.318,0.01 0.273,0.01C0.23,0.01 0.191,0.001 0.156,-0.018C0.121,-0.036 0.094,-0.062 0.075,-0.095C0.055,-0.128 0.045,-0.167 0.045,-0.211ZM0.139,-0.21C0.139,-0.184 0.145,-0.16 0.157,-0.138C0.168,-0.116 0.184,-0.099 0.205,-0.086C0.225,-0.073 0.247,-0.067 0.272,-0.067C0.311,-0.067 0.343,-0.081 0.368,-0.108C0.393,-0.135 0.406,-0.169 0.406,-0.21C0.406,-0.251 0.393,-0.285 0.368,-0.313C0.343,-0.34 0.311,-0.354 0.272,-0.354C0.247,-0.354 0.224,-0.347 0.204,-0.335C0.184,-0.322 0.168,-0.304 0.157,-0.282C0.145,-0.26 0.139,-0.236 0.139,-0.21Z" style="fill:rgb(13,13,13);fill-rule:nonzero;"/>
                    </g>
                </g>
                <rect x="481.669" y="3109.78" width="1712.38" height="33.121" style="fill:rgb(134,153,167);"/>
                <g transform="matrix(0.211697,0,0,1,479.801,0)">
                    <path d="M2194.05,3119.72L2194.05,3132.97C2194.05,3138.45 2173.01,3142.9 2147.11,3142.9L528.606,3142.9C502.701,3142.9 481.669,3138.45 481.669,3132.97L481.669,3119.72C481.669,3114.23 502.701,3109.78 528.606,3109.78L2147.11,3109.78C2173.01,3109.78 2194.05,3114.23 2194.05,3119.72Z" style="fill:rgb(1,17,38);"/>
                </g>
                <g transform="matrix(0.337884,0,0,1,1452.71,0)">
                    <path d="M2194.05,3119.72L2194.05,3132.97C2194.05,3138.45 2180.87,3142.9 2164.64,3142.9L511.077,3142.9C494.846,3142.9 481.669,3138.45 481.669,3132.97L481.669,3119.72C481.669,3114.23 494.846,3109.78 511.077,3109.78L2164.64,3109.78C2180.87,3109.78 2194.05,3114.23 2194.05,3119.72Z" style="fill:rgb(1,17,38);"/>
                </g>
            </g>
            <g transform="matrix(1,0,0,1,0,176.448)">
                <g transform="matrix(0.802965,0,0,0.802965,-321.102,2563.51)">
                    <g transform="matrix(54.1667,0,0,54.1667,782.478,706.295)">
                        <path d="M0.104,-0.723L0.302,-0.723C0.392,-0.723 0.466,-0.705 0.526,-0.67C0.584,-0.634 0.627,-0.588 0.655,-0.532C0.682,-0.475 0.695,-0.416 0.695,-0.353C0.695,-0.283 0.679,-0.221 0.646,-0.168C0.613,-0.114 0.57,-0.073 0.515,-0.044C0.46,-0.015 0.401,-0 0.337,-0L0.104,-0L0.104,-0.723ZM0.318,-0.094C0.371,-0.094 0.419,-0.105 0.461,-0.126C0.503,-0.147 0.536,-0.177 0.56,-0.217C0.583,-0.257 0.595,-0.305 0.595,-0.36C0.595,-0.417 0.583,-0.465 0.558,-0.506C0.533,-0.547 0.501,-0.578 0.46,-0.599C0.419,-0.62 0.374,-0.63 0.327,-0.63L0.201,-0.63L0.201,-0.094L0.318,-0.094Z" style="fill:rgb(13,13,13);fill-rule:nonzero;"/>
                    </g>
                    <g transform="matrix(54.1667,0,0,54.1667,823.32,706.295)">
                        <path d="M0.045,-0.211C0.045,-0.252 0.055,-0.289 0.075,-0.323C0.094,-0.356 0.122,-0.383 0.157,-0.402C0.192,-0.421 0.231,-0.431 0.275,-0.431C0.319,-0.431 0.358,-0.421 0.393,-0.402C0.427,-0.383 0.454,-0.356 0.473,-0.323C0.492,-0.29 0.501,-0.252 0.501,-0.211C0.501,-0.17 0.492,-0.132 0.473,-0.099C0.454,-0.065 0.427,-0.038 0.392,-0.019C0.357,0 0.318,0.01 0.273,0.01C0.23,0.01 0.191,0.001 0.156,-0.018C0.121,-0.036 0.094,-0.062 0.075,-0.095C0.055,-0.128 0.045,-0.167 0.045,-0.211ZM0.139,-0.21C0.139,-0.184 0.145,-0.16 0.157,-0.138C0.168,-0.116 0.184,-0.099 0.205,-0.086C0.225,-0.073 0.247,-0.067 0.272,-0.067C0.311,-0.067 0.343,-0.081 0.368,-0.108C0.393,-0.135 0.406,-0.169 0.406,-0.21C0.406,-0.251 0.393,-0.285 0.368,-0.313C0.343,-0.34 0.311,-0.354 0.272,-0.354C0.247,-0.354 0.224,-0.347 0.204,-0.335C0.184,-0.322 0.168,-0.304 0.157,-0.282C0.145,-0.26 0.139,-0.236 0.139,-0.21Z" style="fill:rgb(13,13,13);fill-rule:nonzero;"/>
                    </g>
                </g>
                <rect x="481.669" y="3109.78" width="1712.38" height="33.121" style="fill:rgb(134,153,167);"/>
                <g transform="matrix(0.211697,0,0,1,479.801,0)">
                    <path d="M2194.05,3119.72L2194.05,3132.97C2194.05,3138.45 2173.01,3142.9 2147.11,3142.9L528.606,3142.9C502.701,3142.9 481.669,3138.45 481.669,3132.97L481.669,3119.72C481.669,3114.23 502.701,3109.78 528.606,3109.78L2147.11,3109.78C2173.01,3109.78 2194.05,3114.23 2194.05,3119.72Z" style="fill:rgb(1,17,38);"/>
                </g>
                <g transform="matrix(0.31674,0,0,1,1462.9,0)">
                    <path d="M2194.05,3119.72L2194.05,3132.97C2194.05,3138.45 2179.99,3142.9 2162.67,3142.9L513.04,3142.9C495.726,3142.9 481.669,3138.45 481.669,3132.97L481.669,3119.72C481.669,3114.23 495.726,3109.78 513.04,3109.78L2162.67,3109.78C2179.99,3109.78 2194.05,3114.23 2194.05,3119.72Z" style="fill:rgb(1,17,38);"/>
                </g>
            </g>
            <g>
                <g transform="matrix(0.802965,0,0,0.802965,-321.102,2563.51)">
                    <g transform="matrix(54.1667,0,0,54.1667,782.478,706.295)">
                        <path d="M0.823,-0.746L0.823,-0L0.727,-0L0.727,-0.468L0.461,-0.091L0.459,-0.091L0.198,-0.455L0.198,-0L0.104,-0L0.104,-0.746L0.105,-0.746L0.461,-0.242L0.822,-0.746L0.823,-0.746Z" style="fill:rgb(13,13,13);fill-rule:nonzero;"/>
                    </g>
                    <g transform="matrix(54.1667,0,0,54.1667,832.691,706.295)">
                        <path d="M0.045,-0.211C0.045,-0.252 0.055,-0.289 0.075,-0.323C0.094,-0.356 0.122,-0.383 0.157,-0.402C0.192,-0.421 0.231,-0.431 0.275,-0.431C0.319,-0.431 0.358,-0.421 0.393,-0.402C0.427,-0.383 0.454,-0.356 0.473,-0.323C0.492,-0.29 0.501,-0.252 0.501,-0.211C0.501,-0.17 0.492,-0.132 0.473,-0.099C0.454,-0.065 0.427,-0.038 0.392,-0.019C0.357,0 0.318,0.01 0.273,0.01C0.23,0.01 0.191,0.001 0.156,-0.018C0.121,-0.036 0.094,-0.062 0.075,-0.095C0.055,-0.128 0.045,-0.167 0.045,-0.211ZM0.139,-0.21C0.139,-0.184 0.145,-0.16 0.157,-0.138C0.168,-0.116 0.184,-0.099 0.205,-0.086C0.225,-0.073 0.247,-0.067 0.272,-0.067C0.311,-0.067 0.343,-0.081 0.368,-0.108C0.393,-0.135 0.406,-0.169 0.406,-0.21C0.406,-0.251 0.393,-0.285 0.368,-0.313C0.343,-0.34 0.311,-0.354 0.272,-0.354C0.247,-0.354 0.224,-0.347 0.204,-0.335C0.184,-0.322 0.168,-0.304 0.157,-0.282C0.145,-0.26 0.139,-0.236 0.139,-0.21Z" style="fill:rgb(13,13,13);fill-rule:nonzero;"/>
                    </g>
                </g>
                <path d="M2194.05,3119.72L2194.05,3132.97C2194.05,3138.45 2189.59,3142.9 2184.11,3142.9L491.605,3142.9C486.121,3142.9 481.669,3138.45 481.669,3132.97L481.669,3119.72C481.669,3114.23 486.121,3109.78 491.605,3109.78L2184.11,3109.78C2189.59,3109.78 2194.05,3114.23 2194.05,3119.72Z" style="fill:rgb(134,153,167);"/>
                <g transform="matrix(0.211697,0,0,1,479.801,0)">
                    <path d="M2194.05,3119.72L2194.05,3132.97C2194.05,3138.45 2173.01,3142.9 2147.11,3142.9L528.606,3142.9C502.701,3142.9 481.669,3138.45 481.669,3132.97L481.669,3119.72C481.669,3114.23 502.701,3109.78 528.606,3109.78L2147.11,3109.78C2173.01,3109.78 2194.05,3114.23 2194.05,3119.72Z" style="fill:rgb(1,17,38);"/>
                </g>
                <g transform="matrix(0.31674,0,0,1,1462.9,0)">
                    <path d="M2194.05,3119.72L2194.05,3132.97C2194.05,3138.45 2179.99,3142.9 2162.67,3142.9L513.04,3142.9C495.726,3142.9 481.669,3138.45 481.669,3132.97L481.669,3119.72C481.669,3114.23 495.726,3109.78 513.04,3109.78L2162.67,3109.78C2179.99,3109.78 2194.05,3114.23 2194.05,3119.72Z" style="fill:rgb(1,17,38);"/>
                </g>
            </g>
            <g transform="matrix(1,0,0,1,-6.82121e-13,352.896)">
                <g transform="matrix(0.802965,0,0,0.802965,-321.102,2563.51)">
                    <g transform="matrix(54.1667,0,0,54.1667,782.478,706.295)">
                        <path d="M0.478,-0.594C0.452,-0.608 0.424,-0.619 0.395,-0.628C0.366,-0.637 0.338,-0.641 0.312,-0.641C0.273,-0.641 0.242,-0.632 0.219,-0.615C0.196,-0.597 0.184,-0.573 0.184,-0.542C0.184,-0.512 0.198,-0.488 0.225,-0.469C0.252,-0.45 0.29,-0.431 0.34,-0.412C0.377,-0.399 0.409,-0.384 0.435,-0.369C0.46,-0.353 0.482,-0.331 0.499,-0.304C0.516,-0.276 0.524,-0.241 0.524,-0.198C0.524,-0.159 0.514,-0.124 0.495,-0.093C0.476,-0.062 0.448,-0.037 0.413,-0.019C0.377,-0.001 0.335,0.008 0.287,0.008C0.242,0.008 0.199,0.001 0.158,-0.014C0.117,-0.028 0.08,-0.046 0.049,-0.068L0.092,-0.145C0.117,-0.126 0.146,-0.111 0.181,-0.098C0.216,-0.085 0.248,-0.078 0.278,-0.078C0.317,-0.078 0.351,-0.088 0.38,-0.108C0.409,-0.128 0.423,-0.158 0.423,-0.197C0.423,-0.23 0.411,-0.257 0.387,-0.277C0.362,-0.296 0.328,-0.315 0.284,-0.332C0.243,-0.347 0.21,-0.362 0.183,-0.377C0.156,-0.392 0.132,-0.412 0.113,-0.438C0.094,-0.463 0.084,-0.495 0.084,-0.534C0.084,-0.591 0.104,-0.636 0.144,-0.672C0.183,-0.707 0.235,-0.725 0.298,-0.727C0.376,-0.727 0.448,-0.708 0.515,-0.669L0.478,-0.594Z" style="fill:rgb(13,13,13);fill-rule:nonzero;"/>
                    </g>
                    <g transform="matrix(54.1667,0,0,54.1667,814.003,706.295)">
                        <path d="M0.045,-0.211C0.045,-0.252 0.055,-0.289 0.075,-0.323C0.094,-0.356 0.122,-0.383 0.157,-0.402C0.192,-0.421 0.231,-0.431 0.275,-0.431C0.319,-0.431 0.358,-0.421 0.393,-0.402C0.427,-0.383 0.454,-0.356 0.473,-0.323C0.492,-0.29 0.501,-0.252 0.501,-0.211C0.501,-0.17 0.492,-0.132 0.473,-0.099C0.454,-0.065 0.427,-0.038 0.392,-0.019C0.357,0 0.318,0.01 0.273,0.01C0.23,0.01 0.191,0.001 0.156,-0.018C0.121,-0.036 0.094,-0.062 0.075,-0.095C0.055,-0.128 0.045,-0.167 0.045,-0.211ZM0.139,-0.21C0.139,-0.184 0.145,-0.16 0.157,-0.138C0.168,-0.116 0.184,-0.099 0.205,-0.086C0.225,-0.073 0.247,-0.067 0.272,-0.067C0.311,-0.067 0.343,-0.081 0.368,-0.108C0.393,-0.135 0.406,-0.169 0.406,-0.21C0.406,-0.251 0.393,-0.285 0.368,-0.313C0.343,-0.34 0.311,-0.354 0.272,-0.354C0.247,-0.354 0.224,-0.347 0.204,-0.335C0.184,-0.322 0.168,-0.304 0.157,-0.282C0.145,-0.26 0.139,-0.236 0.139,-0.21Z" style="fill:rgb(13,13,13);fill-rule:nonzero;"/>
                    </g>
                </g>
                <rect x="481.669" y="3109.78" width="1712.38" height="33.121" style="fill:rgb(134,153,167);"/>
                <g transform="matrix(0.470884,0,0,1,605.936,0)">
                    <path d="M2194.05,3119.72L2194.05,3132.97C2194.05,3138.45 2184.59,3142.9 2172.94,3142.9L502.771,3142.9C491.124,3142.9 481.669,3138.45 481.669,3132.97L481.669,3119.72C481.669,3114.23 491.124,3109.78 502.771,3109.78L2172.94,3109.78C2184.59,3109.78 2194.05,3114.23 2194.05,3119.72Z" style="fill:rgb(1,17,38);"/>
                </g>
                <g transform="matrix(0.31674,0,0,1,1462.9,0)">
                    <path d="M2194.05,3119.72L2194.05,3132.97C2194.05,3138.45 2179.99,3142.9 2162.67,3142.9L513.04,3142.9C495.726,3142.9 481.669,3138.45 481.669,3132.97L481.669,3119.72C481.669,3114.23 495.726,3109.78 513.04,3109.78L2162.67,3109.78C2179.99,3109.78 2194.05,3114.23 2194.05,3119.72Z" style="fill:rgb(1,17,38);"/>
                </g>
            </g>
            <g transform="matrix(1,0,0,1,2.27374e-13,235.264)">
                <g transform="matrix(0.802965,0,0,0.802965,-321.102,2563.51)">
                    <g transform="matrix(54.1667,0,0,54.1667,782.478,706.295)">
                        <path d="M0.533,-0.723L0.533,-0.63L0.201,-0.63L0.201,-0.4L0.492,-0.4L0.492,-0.307L0.201,-0.307L0.201,-0L0.104,-0L0.104,-0.723L0.533,-0.723Z" style="fill:rgb(13,13,13);fill-rule:nonzero;"/>
                    </g>
                    <g transform="matrix(54.1667,0,0,54.1667,813.245,706.295)">
                        <path d="M0.171,-0.316C0.182,-0.339 0.197,-0.359 0.217,-0.376C0.236,-0.393 0.257,-0.407 0.279,-0.416C0.301,-0.425 0.32,-0.43 0.337,-0.431L0.333,-0.338C0.303,-0.339 0.276,-0.333 0.252,-0.32C0.227,-0.307 0.208,-0.288 0.195,-0.265C0.181,-0.241 0.174,-0.216 0.174,-0.189L0.174,-0L0.081,-0L0.081,-0.414L0.164,-0.414L0.171,-0.316Z" style="fill:rgb(13,13,13);fill-rule:nonzero;"/>
                    </g>
                </g>
                <rect x="481.669" y="3109.78" width="1712.38" height="33.121" style="fill:rgb(134,153,167);"/>
                <g transform="matrix(0.211697,0,0,1,479.801,0)">
                    <path d="M2194.05,3119.72L2194.05,3132.97C2194.05,3138.45 2173.01,3142.9 2147.11,3142.9L528.606,3142.9C502.701,3142.9 481.669,3138.45 481.669,3132.97L481.669,3119.72C481.669,3114.23 502.701,3109.78 528.606,3109.78L2147.11,3109.78C2173.01,3109.78 2194.05,3114.23 2194.05,3119.72Z" style="fill:rgb(1,17,38);"/>
                </g>
                <g transform="matrix(0.392775,0,0,1,1332.28,0)">
                    <path d="M2194.05,3119.72L2194.05,3132.97C2194.05,3138.45 2182.71,3142.9 2168.75,3142.9L506.967,3142.9C493.005,3142.9 481.669,3138.45 481.669,3132.97L481.669,3119.72C481.669,3114.23 493.005,3109.78 506.967,3109.78L2168.75,3109.78C2182.71,3109.78 2194.05,3114.23 2194.05,3119.72Z" style="fill:rgb(1,17,38);"/>
                </g>
            </g>
            <g transform="matrix(1,0,0,1,-4.54747e-13,294.08)">
                <g transform="matrix(0.802965,0,0,0.802965,-321.102,2563.51)">
                    <g transform="matrix(54.1667,0,0,54.1667,782.478,706.295)">
                        <path d="M0.478,-0.594C0.452,-0.608 0.424,-0.619 0.395,-0.628C0.366,-0.637 0.338,-0.641 0.312,-0.641C0.273,-0.641 0.242,-0.632 0.219,-0.615C0.196,-0.597 0.184,-0.573 0.184,-0.542C0.184,-0.512 0.198,-0.488 0.225,-0.469C0.252,-0.45 0.29,-0.431 0.34,-0.412C0.377,-0.399 0.409,-0.384 0.435,-0.369C0.46,-0.353 0.482,-0.331 0.499,-0.304C0.516,-0.276 0.524,-0.241 0.524,-0.198C0.524,-0.159 0.514,-0.124 0.495,-0.093C0.476,-0.062 0.448,-0.037 0.413,-0.019C0.377,-0.001 0.335,0.008 0.287,0.008C0.242,0.008 0.199,0.001 0.158,-0.014C0.117,-0.028 0.08,-0.046 0.049,-0.068L0.092,-0.145C0.117,-0.126 0.146,-0.111 0.181,-0.098C0.216,-0.085 0.248,-0.078 0.278,-0.078C0.317,-0.078 0.351,-0.088 0.38,-0.108C0.409,-0.128 0.423,-0.158 0.423,-0.197C0.423,-0.23 0.411,-0.257 0.387,-0.277C0.362,-0.296 0.328,-0.315 0.284,-0.332C0.243,-0.347 0.21,-0.362 0.183,-0.377C0.156,-0.392 0.132,-0.412 0.113,-0.438C0.094,-0.463 0.084,-0.495 0.084,-0.534C0.084,-0.591 0.104,-0.636 0.144,-0.672C0.183,-0.707 0.235,-0.725 0.298,-0.727C0.376,-0.727 0.448,-0.708 0.515,-0.669L0.478,-0.594Z" style="fill:rgb(13,13,13);fill-rule:nonzero;"/>
                    </g>
                    <g transform="matrix(54.1667,0,0,54.1667,814.003,706.295)">
                        <path d="M0.506,-0.414L0.506,-0L0.413,-0L0.413,-0.068C0.398,-0.049 0.377,-0.031 0.349,-0.015C0.321,0.002 0.289,0.01 0.254,0.01C0.215,0.01 0.179,0.002 0.148,-0.016C0.116,-0.033 0.091,-0.057 0.073,-0.09C0.054,-0.123 0.045,-0.162 0.045,-0.207C0.045,-0.252 0.054,-0.292 0.074,-0.326C0.093,-0.359 0.118,-0.385 0.151,-0.404C0.183,-0.422 0.219,-0.431 0.258,-0.431C0.293,-0.431 0.324,-0.423 0.35,-0.408C0.376,-0.393 0.397,-0.373 0.413,-0.348L0.42,-0.414L0.506,-0.414ZM0.279,-0.067C0.313,-0.067 0.342,-0.077 0.367,-0.096C0.391,-0.115 0.406,-0.14 0.413,-0.173L0.413,-0.255C0.405,-0.284 0.388,-0.308 0.363,-0.327C0.338,-0.345 0.309,-0.354 0.276,-0.354C0.251,-0.354 0.229,-0.348 0.208,-0.336C0.187,-0.324 0.17,-0.307 0.158,-0.286C0.145,-0.264 0.139,-0.239 0.139,-0.212C0.139,-0.185 0.145,-0.161 0.158,-0.139C0.171,-0.117 0.188,-0.099 0.209,-0.087C0.23,-0.074 0.254,-0.067 0.279,-0.067Z" style="fill:rgb(13,13,13);fill-rule:nonzero;"/>
                    </g>
                </g>
                <rect x="481.669" y="3109.78" width="1712.38" height="33.121" style="fill:rgb(134,153,167);"/>
                <g transform="matrix(0.634071,0,0,1,276.357,0)">
                    <path d="M2194.05,3119.72L2194.05,3132.97C2194.05,3138.45 2187.02,3142.9 2178.37,3142.9L497.34,3142.9C488.691,3142.9 481.669,3138.45 481.669,3132.97L481.669,3119.72C481.669,3114.23 488.691,3109.78 497.34,3109.78L2178.37,3109.78C2187.02,3109.78 2194.05,3114.23 2194.05,3119.72Z" style="fill:rgb(1,17,38);"/>
                </g>
                <g transform="matrix(0.337884,0,0,1,1452.71,0)">
                    <path d="M2194.05,3119.72L2194.05,3132.97C2194.05,3138.45 2180.87,3142.9 2164.64,3142.9L511.077,3142.9C494.846,3142.9 481.669,3138.45 481.669,3132.97L481.669,3119.72C481.669,3114.23 494.846,3109.78 511.077,3109.78L2164.64,3109.78C2180.87,3109.78 2194.05,3114.23 2194.05,3119.72Z" style="fill:rgb(1,17,38);"/>
                </g>
            </g>
        </g>
    </g>
</svg>
