<?xml version="1.0" encoding="UTF-8" standalone="no"?>
<!DOCTYPE svg PUBLIC "-//W3C//DTD SVG 1.1//EN" "http://www.w3.org/Graphics/SVG/1.1/DTD/svg11.dtd">
<svg width="100%" height="100%" viewBox="0 0 1500 1500" version="1.1" xmlns="http://www.w3.org/2000/svg" xmlns:xlink="http://www.w3.org/1999/xlink" xml:space="preserve" xmlns:serif="http://www.serif.com/" style="fill-rule:evenodd;clip-rule:evenodd;stroke-linejoin:round;stroke-miterlimit:2;">
    <g transform="matrix(0.439939,0,0,0.439939,2.77112e-13,551.438)">
        <g transform="matrix(4.16667,0,0,4.16667,0,0)">
            <path d="M0,93.725L0,93.426C0,63.812 23.241,39.279 55.589,39.279C75.532,39.279 87.467,46.009 98.461,55.88L89.979,64.556C80.714,56.179 70.348,50.196 55.434,50.196C31.09,50.196 12.877,69.046 12.877,93.125L12.877,93.426C12.877,117.653 31.249,136.655 55.434,136.655C70.507,136.655 80.4,131.119 90.921,121.543L99.085,129.173C87.623,140.242 75.063,147.574 55.118,147.574C23.399,147.574 0,123.788 0,93.725Z" style="fill:rgb(242,242,242);fill-rule:nonzero;"/>
        </g>
        <g transform="matrix(4.16667,0,0,4.16667,0,0)">
            <path d="M195.208,107.483L195.208,107.186C195.208,90.582 182.171,76.969 165.054,76.969C147.468,76.969 135.377,90.582 135.377,106.885L135.377,107.186C135.377,123.788 148.255,137.248 165.371,137.248C182.958,137.248 195.208,123.788 195.208,107.483ZM122.972,107.483L122.972,107.186C122.972,85.346 140.873,66.799 165.371,66.799C189.71,66.799 207.613,85.047 207.613,106.885L207.613,107.186C207.613,129.024 189.552,147.574 165.054,147.574C140.715,147.574 122.972,129.324 122.972,107.483Z" style="fill:rgb(242,242,242);fill-rule:nonzero;"/>
        </g>
        <g transform="matrix(4.16667,0,0,4.16667,0,0)">
            <path d="M235.047,68.444L247.14,68.444L247.14,81.907C252.479,73.53 260.958,66.802 274.935,66.802C294.565,66.802 306.023,79.366 306.023,97.764L306.023,145.778L293.935,145.778L293.935,100.607C293.935,86.245 285.768,77.272 271.479,77.272C257.506,77.272 247.14,86.995 247.14,101.501L247.14,145.778L235.047,145.778L235.047,68.444Z" style="fill:rgb(242,242,242);fill-rule:nonzero;"/>
        </g>
        <g transform="matrix(4.16667,0,0,4.16667,0,0)">
            <path d="M344.868,125.282L344.868,78.62L333.564,78.62L333.564,68.442L344.868,68.442L344.868,45.112L356.958,45.112L356.958,68.442L382.713,68.442L382.713,78.62L356.958,78.62L356.958,123.788C356.958,133.213 362.454,136.655 370.621,136.655C374.704,136.655 378.157,135.903 382.4,133.957L382.4,143.831C378.157,145.926 373.604,147.122 367.795,147.122C354.761,147.122 344.868,140.989 344.868,125.282Z" style="fill:rgb(242,242,242);fill-rule:nonzero;"/>
        </g>
        <g transform="matrix(4.16667,0,0,4.16667,0,0)">
            <path d="M409.679,68.444L421.768,68.444L421.768,88.637C427.736,75.778 439.513,66.503 454.902,67.101L454.902,79.517L453.961,79.517C436.216,79.517 421.768,91.631 421.768,114.963L421.768,145.778L409.679,145.778L409.679,68.444Z" style="fill:rgb(242,242,242);fill-rule:nonzero;"/>
        </g>
        <g transform="matrix(4.16667,0,0,4.16667,0,0)">
            <path d="M542.641,107.483L542.641,107.186C542.641,90.582 529.606,76.969 512.49,76.969C494.903,76.969 482.81,90.582 482.81,106.885L482.81,107.186C482.81,123.788 495.688,137.248 512.805,137.248C530.393,137.248 542.641,123.788 542.641,107.483ZM470.407,107.483L470.407,107.186C470.407,85.346 488.309,66.799 512.805,66.799C537.147,66.799 555.047,85.047 555.047,106.885L555.047,107.186C555.047,129.024 536.987,147.574 512.49,147.574C488.151,147.574 470.407,129.324 470.407,107.483Z" style="fill:rgb(242,242,242);fill-rule:nonzero;"/>
        </g>
        <g transform="matrix(4.16667,0,0,4.16667,0,0)">
            <rect x="583.581" y="36.586" width="12.092" height="109.189" style="fill:rgb(242,242,242);"/>
        </g>
        <g transform="matrix(4.16667,0,0,4.16667,0,0)">
            <path d="M682.796,115.017L742.576,115.039L742.576,152.29L760.884,152.29L760.884,99.671L703.417,99.706L752.171,32.333L729.377,32.333L678.563,102.973L682.796,115.017Z" style="fill:rgb(242,242,242);"/>
        </g>
        <g transform="matrix(4.16667,0,0,4.16667,0,0)">
            <path d="M746.235,176.219C738.846,177.504 734.159,177.85 727.62,177.85C681.412,177.85 643.951,140.383 643.951,94.178C643.951,47.962 681.412,10.503 727.62,10.503C765.642,10.503 797.745,35.862 807.928,70.594C802.639,47.165 788.073,25.891 765.794,12.853C723.13,-12.122 667.955,2.313 642.967,44.979C617.993,87.644 632.423,142.818 675.082,167.798C697.371,180.836 723.206,183.056 746.235,176.219Z" style="fill:rgb(242,242,242);"/>
        </g>
        <g transform="matrix(4.16667,0,0,4.16667,0,0)">
            <path d="M810.259,25.896C811.483,25.896 812.169,25.259 812.169,24.328C812.169,23.299 811.435,22.809 810.259,22.809L807.956,22.809L807.956,25.896L810.259,25.896ZM806.584,21.585L810.405,21.585C812.169,21.585 813.591,22.515 813.591,24.23C813.591,25.651 812.659,26.484 811.483,26.827L813.884,30.159L812.169,30.159L810.014,27.023L807.956,27.023L807.956,30.159L806.584,30.159L806.584,21.585ZM817.313,26.043L817.313,25.994C817.313,21.83 814.081,18.4 809.768,18.4C805.507,18.4 802.224,21.879 802.224,26.043L802.224,26.092C802.224,30.257 805.457,33.687 809.768,33.687C814.031,33.687 817.313,30.208 817.313,26.043ZM801.243,26.092L801.243,26.043C801.243,21.388 805.017,17.469 809.768,17.469C814.57,17.469 818.294,21.34 818.294,25.994L818.294,26.043C818.294,30.698 814.521,34.617 809.768,34.617C804.968,34.617 801.243,30.747 801.243,26.092Z" style="fill:rgb(242,242,242);fill-rule:nonzero;"/>
        </g>
    </g>
</svg>
