<?xml version="1.0" encoding="UTF-8" standalone="no"?><!DOCTYPE svg PUBLIC "-//W3C//DTD SVG 1.1//EN" "http://www.w3.org/Graphics/SVG/1.1/DTD/svg11.dtd"><svg width="100%" height="100%" viewBox="0 0 3442 770" version="1.1" xmlns="http://www.w3.org/2000/svg" xmlns:xlink="http://www.w3.org/1999/xlink" xml:space="preserve" xmlns:serif="http://www.serif.com/" style="fill-rule:evenodd;clip-rule:evenodd;stroke-linejoin:round;stroke-miterlimit:2;"><g id="Calque_2"><g id="Calque_1-2"><path d="M2759.17,233.333l24.166,0c47.529,2.819 94.342,12.937 138.792,30l0,28.334c-30.458,-10.709 -63.125,-25.75 -101.292,-30.584c-39.919,-5.248 -80.489,-2.414 -119.291,8.334c-64.625,18.75 -119.542,68.083 -119.417,147.666c0,81.292 55.417,127.875 120.042,147.042c78.166,23.167 165.75,0.917 223.541,-24.75c1.216,8.708 1.216,17.542 0,26.25c-55.833,26.625 -133.333,43.458 -207.791,29.167c-64.125,-12.209 -121.834,-47.125 -150.792,-97.542c-33.551,-59.876 -26.032,-134.779 18.75,-186.792c36.833,-43 99.292,-72.958 173.292,-77.125Z" style="fill:#f2f2f2;fill-rule:nonzero;"/><path d="M2130.54,235.542l18,-0c56.958,105 116.125,208.125 173.291,313.583c8.751,14.749 16.518,30.06 23.25,45.833l-32.25,0c-23.708,-40.083 -44.583,-82.916 -68.25,-123.041l-210.083,-0c-23.75,40.25 -44.708,83.333 -69,123.041l-32.167,0c65.084,-120.416 130.084,-240.791 197.209,-359.416Zm9.75,45.833l-1.5,0c-23.5,41.333 -46.667,83.333 -69,124.542c-8.067,13.561 -15.33,27.586 -21.75,42c55.833,1.25 127.208,1.25 183.041,-0c-29.333,-56.542 -60.25,-111.209 -90.791,-166.584l-0,0.042Z" style="fill:#f2f2f2;fill-rule:nonzero;"/><path d="M0,594.167l0,-355.625c8.042,0.541 20.833,-3.167 30.75,-0.75c6.667,1.625 14.75,13.5 20.833,20.25c7.209,7.791 15.542,14.375 20.834,20.25c40.375,43.416 83.333,85.5 123.041,125.291c48.417,-45.25 95.125,-98.75 143.625,-145.5c6.5,-6.291 15,-18.458 20.834,-20.25c7.541,-2.25 22.75,1.75 31.5,0c1.25,117.292 1.25,239.792 -0,357.084l-30.584,-0c-1.75,-103.542 -0.25,-210.292 -0.75,-315.084c-9.125,3.834 -14.416,12.917 -20.833,19.5c-48.542,48.375 -95.042,97.875 -144.208,144.792c-54.25,-54.792 -107.25,-110.792 -162.042,-164.958c-1.75,103.541 -0.25,210.291 -0.75,315.083c-10.717,1.213 -21.539,1.185 -32.25,-0.083Z" style="fill:#f2f2f2;fill-rule:nonzero;"/><path d="M684.917,237.792c76.5,0.5 155.041,-1 230.291,0.75c3,4.166 1.5,16.916 0.75,22.5l-199.541,-0c-1.75,45.833 -0.25,94.791 -0.75,141.666c63.75,1.75 130.791,0.25 195.833,0.75c1.234,7.449 1.234,15.051 -0,22.5c-64.75,0.5 -131.542,-1 -195.042,0.75c-1.75,47.5 -0.25,98.25 -0.75,147.042l206.292,0c-0.458,6.792 0.917,15.417 -0.75,20.833l-237.917,0l0,-354.541c-0.132,-1.041 0.559,-2.023 1.584,-2.25Z" style="fill:#f2f2f2;fill-rule:nonzero;"/><path d="M1183.04,237.792c9.833,0.416 21.416,-0.917 30,0.75l-0,335.333l213.041,0c-0.458,6.792 0.917,15.417 -0.75,20.833c-81.25,-0.5 -164.541,1 -244.541,-0.75l-0,-354.666c0.608,-0.685 1.383,-1.202 2.25,-1.5Z" style="fill:#f2f2f2;fill-rule:nonzero;"/><path d="M3441.08,267.083l0,343.584l-248.291,-0c-2.042,-7.167 -0,-17.709 -0.75,-27.75l221.291,-0c1.75,-103.792 0.25,-210.792 0.75,-315.834l27,0Z" style="fill:#f2f2f2;fill-rule:nonzero;"/><path d="M1687.92,0l46.5,0l-0,449.375c-0,75 6.416,157.042 -7.5,217.542c-13.917,60.5 -50.667,99.333 -121.542,102.791l-22.5,0c0,-0.708 -0.917,-0.583 -1.5,-0.75c-1,-12 -2.875,-23.125 -4.5,-34.5l0,-10.5c27.8,8.113 57.905,1.296 79.5,-18c36.625,-34.208 31.5,-108.625 31.5,-178.541l0.042,-527.417Z" style="fill:#f2f2f2;fill-rule:nonzero;"/><path d="M3414.08,236.292l0,346.583l-252.791,0c0.5,-115.292 -1,-232.542 0.75,-346.583l252.041,-0Z" style="fill:#f2f2f2;fill-rule:nonzero;"/></g></g></svg>